G04*
G04 #@! TF.GenerationSoftware,Altium Limited,Altium Designer,25.1.2 (22)*
G04*
G04 Layer_Color=3039647*
%FSLAX44Y44*%
%MOMM*%
G71*
G04*
G04 #@! TF.SameCoordinates,C917C2C7-DC1F-4EFE-91AA-FEAD6B98D190*
G04*
G04*
G04 #@! TF.FilePolarity,Positive*
G04*
G01*
G75*
G36*
X-32500Y620000D02*
X32500D01*
Y715000D01*
X-32500D01*
Y620000D01*
D02*
G37*
G36*
X30000Y1006000D02*
X27553D01*
X26642Y1005888D01*
X25034Y1005032D01*
X24019Y1003520D01*
X23833Y1001708D01*
X24073Y1000823D01*
X24584Y999569D01*
X25341Y996971D01*
X25824Y994308D01*
X26028Y991609D01*
X25951Y988904D01*
X25593Y986221D01*
X24958Y983590D01*
X24054Y981039D01*
X23472Y979817D01*
X23270Y979365D01*
X22935Y978434D01*
X22693Y977473D01*
X22548Y976494D01*
X22512Y976000D01*
X0Y976000D01*
X-22512Y976000D01*
X-22548Y976494D01*
X-22693Y977473D01*
X-22935Y978434D01*
X-23270Y979365D01*
X-23472Y979817D01*
X-24054Y981039D01*
X-24958Y983590D01*
X-25593Y986221D01*
X-25951Y988904D01*
X-26028Y991609D01*
X-25824Y994308D01*
X-25341Y996971D01*
X-24585Y999569D01*
X-24073Y1000823D01*
X-23833Y1001708D01*
X-24019Y1003520D01*
X-25034Y1005032D01*
X-26642Y1005888D01*
X-27553Y1006000D01*
X-30000D01*
Y1036000D01*
X30000D01*
Y1006000D01*
D02*
G37*
%LPC*%
G36*
X0Y998500D02*
X-979Y998436D01*
X-2870Y997929D01*
X-4566Y996950D01*
X-5950Y995566D01*
X-6929Y993870D01*
X-7436Y991979D01*
Y990021D01*
X-6929Y988130D01*
X-5950Y986434D01*
X-4566Y985050D01*
X-2870Y984071D01*
X-979Y983564D01*
X0Y983500D01*
X979Y983564D01*
X2870Y984071D01*
X4566Y985050D01*
X5950Y986434D01*
X6929Y988130D01*
X7436Y990021D01*
Y991979D01*
X6929Y993870D01*
X5950Y995566D01*
X4566Y996950D01*
X2870Y997929D01*
X979Y998436D01*
X0Y998500D01*
D02*
G37*
%LPD*%
M02*
