G04*
G04 #@! TF.GenerationSoftware,Altium Limited,Altium Designer,25.1.2 (22)*
G04*
G04 Layer_Color=8388736*
%FSLAX44Y44*%
%MOMM*%
G71*
G04*
G04 #@! TF.SameCoordinates,C917C2C7-DC1F-4EFE-91AA-FEAD6B98D190*
G04*
G04*
G04 #@! TF.FilePolarity,Negative*
G04*
G01*
G75*
%ADD13C,0.0250*%
%ADD14R,3.0096X10.2963*%
%ADD15R,1.3000X10.2000*%
%ADD16R,3.0000X10.3007*%
%ADD17R,0.4000X10.2000*%
%ADD18R,0.4500X10.2000*%
%ADD19R,0.3800X10.2000*%
G36*
X16265Y30099D02*
X15878Y29186D01*
X15675Y28740D01*
X15080Y27964D01*
X14279Y27403D01*
X13346Y27109D01*
X12368D01*
X11436Y27403D01*
X10634Y27964D01*
X10039Y28740D01*
X9837Y29186D01*
X9837D01*
X9449Y30099D01*
X9280Y30564D01*
X8677Y31349D01*
X7867Y31917D01*
X6923Y32214D01*
X5934D01*
X4990Y31917D01*
X4180Y31349D01*
X3577Y30564D01*
X3408Y30099D01*
X3408Y30099D01*
X3020Y29186D01*
X2818Y28740D01*
X2223Y27964D01*
X1422Y27403D01*
X489Y27109D01*
X-489D01*
X-1422Y27403D01*
X-2223Y27964D01*
X-2818Y28740D01*
X-3020Y29186D01*
X-3020D01*
X-3408Y30099D01*
X-3577Y30564D01*
X-4180Y31349D01*
X-4990Y31917D01*
X-5934Y32214D01*
X-6923D01*
X-7867Y31917D01*
X-8677Y31349D01*
X-9280Y30564D01*
X-9449Y30099D01*
X-9449Y30099D01*
X-9837Y29186D01*
X-10039Y28740D01*
X-10634Y27964D01*
X-11436Y27403D01*
X-12368Y27109D01*
X-13346D01*
X-14279Y27403D01*
X-15080Y27964D01*
X-15675Y28740D01*
X-15878Y29186D01*
X-15878D01*
X-16265Y30099D01*
X-16459Y30632D01*
X-17188Y31500D01*
X-18169Y32067D01*
X-19286Y32264D01*
X-20402Y32067D01*
X-21384Y31500D01*
X-22112Y30632D01*
X-22500Y29567D01*
Y29000D01*
D01*
Y3000D01*
Y2403D01*
X-22043Y1301D01*
X-21199Y457D01*
X-20097Y0D01*
X-19500D01*
D01*
X19500D01*
X20097D01*
X21199Y457D01*
X22043Y1301D01*
X22500Y2403D01*
Y3000D01*
D01*
Y29000D01*
Y29567D01*
X22112Y30632D01*
X21384Y31500D01*
X20402Y32067D01*
X19286Y32264D01*
X18169Y32067D01*
X17188Y31500D01*
X16459Y30632D01*
X16265Y30099D01*
X16265Y30099D01*
D02*
G37*
D13*
X-15878Y29186D02*
G03*
X-9837Y29186I3020J1099D01*
G01*
X-3020D02*
G03*
X3020Y29186I3020J1099D01*
G01*
X9837D02*
G03*
X15878Y29186I3020J1099D01*
G01*
X-16265Y30099D02*
G03*
X-22500Y29000I-3020J-1099D01*
G01*
X-3408Y30099D02*
G03*
X-9449Y30099I-3020J-1099D01*
G01*
X9449D02*
G03*
X3408Y30099I-3020J-1099D01*
G01*
X22500Y29000D02*
G03*
X16265Y30099I-3214J0D01*
G01*
X-22500Y3000D02*
G03*
X-19500Y0I3000J0D01*
G01*
X19500D02*
G03*
X22500Y3000I0J3000D01*
G01*
X-16265Y30099D02*
X-15878Y29186D01*
X-9837D02*
X-9449Y30099D01*
X-3408D02*
X-3020Y29186D01*
X3020D02*
X3408Y30099D01*
X9449D02*
X9837Y29186D01*
X15878D02*
X16265Y30099D01*
X-19500Y0D02*
X19500D01*
X22500Y3000D02*
Y29000D01*
X-22500Y3000D02*
Y29000D01*
D14*
X174952Y936479D02*
D03*
D15*
X175500Y937000D02*
D03*
D16*
X-75000Y936504D02*
D03*
D17*
X171000Y937000D02*
D03*
X180000D02*
D03*
D18*
X175500D02*
D03*
D19*
X-70460D02*
D03*
X-73820D02*
D03*
X-77180D02*
D03*
X-80540D02*
D03*
M02*
