G04*
G04 #@! TF.GenerationSoftware,Altium Limited,Altium Designer,25.1.2 (22)*
G04*
G04 Layer_Color=16711680*
%FSLAX44Y44*%
%MOMM*%
G71*
G04*
G04 #@! TF.SameCoordinates,C917C2C7-DC1F-4EFE-91AA-FEAD6B98D190*
G04*
G04*
G04 #@! TF.FilePolarity,Positive*
G04*
G01*
G75*
%ADD12C,0.2540*%
%ADD26C,0.3810*%
%ADD27C,0.0254*%
%ADD28C,0.1524*%
D12*
X190000Y887542D02*
Y1090540D01*
X-90000Y887547D02*
Y1090540D01*
X84279Y1088000D02*
X190000D01*
X-90000D02*
X7593D01*
X174760Y1093080D02*
X190000Y1088000D01*
X174760Y1082920D02*
X190000Y1088000D01*
X-90000D02*
X-74760Y1082920D01*
X-90000Y1088000D02*
X-74760Y1093080D01*
X-16955Y-0D02*
X234040D01*
X32545Y1036000D02*
X234040D01*
X231500Y-0D02*
Y469245D01*
Y558627D02*
Y1036000D01*
Y-0D02*
X236580Y15240D01*
X226420D02*
X231500Y-0D01*
X226420Y1020760D02*
X231500Y1036000D01*
X236580Y1020760D01*
X448540Y1267058D02*
Y1282293D01*
X458697Y1267058D01*
Y1282293D01*
X466314Y1277215D02*
X471393D01*
X473932Y1274676D01*
Y1267058D01*
X466314D01*
X463775Y1269597D01*
X466314Y1272137D01*
X473932D01*
X479010Y1267058D02*
Y1277215D01*
X481549D01*
X484089Y1274676D01*
Y1267058D01*
Y1274676D01*
X486628Y1277215D01*
X489167Y1274676D01*
Y1267058D01*
X501863D02*
X496784D01*
X494245Y1269597D01*
Y1274676D01*
X496784Y1277215D01*
X501863D01*
X504402Y1274676D01*
Y1272137D01*
X494245D01*
X448540Y1068933D02*
Y1053698D01*
X456157D01*
X458697Y1056237D01*
Y1058777D01*
X456157Y1061316D01*
X448540D01*
X456157D01*
X458697Y1063855D01*
Y1066394D01*
X456157Y1068933D01*
X448540D01*
X466314Y1053698D02*
X471393D01*
X473932Y1056237D01*
Y1061316D01*
X471393Y1063855D01*
X466314D01*
X463775Y1061316D01*
Y1056237D01*
X466314Y1053698D01*
X481549Y1066394D02*
Y1063855D01*
X479010D01*
X484089D01*
X481549D01*
Y1056237D01*
X484089Y1053698D01*
X494245Y1066394D02*
Y1063855D01*
X491706D01*
X496784D01*
X494245D01*
Y1056237D01*
X496784Y1053698D01*
X506941D02*
X512019D01*
X514559Y1056237D01*
Y1061316D01*
X512019Y1063855D01*
X506941D01*
X504402Y1061316D01*
Y1056237D01*
X506941Y1053698D01*
X519637D02*
Y1063855D01*
X522176D01*
X524715Y1061316D01*
Y1053698D01*
Y1061316D01*
X527254Y1063855D01*
X529794Y1061316D01*
Y1053698D01*
X560264Y1066394D02*
X557725Y1068933D01*
X552646D01*
X550107Y1066394D01*
Y1063855D01*
X552646Y1061316D01*
X557725D01*
X560264Y1058777D01*
Y1056237D01*
X557725Y1053698D01*
X552646D01*
X550107Y1056237D01*
X567881Y1066394D02*
Y1063855D01*
X565342D01*
X570421D01*
X567881D01*
Y1056237D01*
X570421Y1053698D01*
X578038D02*
X583116D01*
X580577D01*
Y1063855D01*
X578038D01*
X593273Y1053698D02*
Y1066394D01*
Y1061316D01*
X590734D01*
X595812D01*
X593273D01*
Y1066394D01*
X595812Y1068933D01*
X605969Y1053698D02*
Y1066394D01*
Y1061316D01*
X603430D01*
X608508D01*
X605969D01*
Y1066394D01*
X608508Y1068933D01*
X623743Y1053698D02*
X618665D01*
X616126Y1056237D01*
Y1061316D01*
X618665Y1063855D01*
X623743D01*
X626283Y1061316D01*
Y1058777D01*
X616126D01*
X631361Y1053698D02*
Y1063855D01*
X638978D01*
X641517Y1061316D01*
Y1053698D01*
X654213D02*
X649135D01*
X646596Y1056237D01*
Y1061316D01*
X649135Y1063855D01*
X654213D01*
X656753Y1061316D01*
Y1058777D01*
X646596D01*
X661831Y1063855D02*
Y1053698D01*
Y1058777D01*
X664370Y1061316D01*
X666909Y1063855D01*
X669448D01*
X448540Y1099413D02*
Y1084178D01*
X456157D01*
X458697Y1086718D01*
Y1089257D01*
X456157Y1091796D01*
X448540D01*
X456157D01*
X458697Y1094335D01*
Y1096874D01*
X456157Y1099413D01*
X448540D01*
X466314Y1084178D02*
X471393D01*
X473932Y1086718D01*
Y1091796D01*
X471393Y1094335D01*
X466314D01*
X463775Y1091796D01*
Y1086718D01*
X466314Y1084178D01*
X481549Y1096874D02*
Y1094335D01*
X479010D01*
X484089D01*
X481549D01*
Y1086718D01*
X484089Y1084178D01*
X494245Y1096874D02*
Y1094335D01*
X491706D01*
X496784D01*
X494245D01*
Y1086718D01*
X496784Y1084178D01*
X506941D02*
X512019D01*
X514559Y1086718D01*
Y1091796D01*
X512019Y1094335D01*
X506941D01*
X504402Y1091796D01*
Y1086718D01*
X506941Y1084178D01*
X519637D02*
Y1094335D01*
X522176D01*
X524715Y1091796D01*
Y1084178D01*
Y1091796D01*
X527254Y1094335D01*
X529794Y1091796D01*
Y1084178D01*
X557725Y1099413D02*
X552646D01*
X550107Y1096874D01*
Y1086718D01*
X552646Y1084178D01*
X557725D01*
X560264Y1086718D01*
Y1096874D01*
X557725Y1099413D01*
X565342Y1094335D02*
X570421Y1084178D01*
X575499Y1094335D01*
X588195Y1084178D02*
X583116D01*
X580577Y1086718D01*
Y1091796D01*
X583116Y1094335D01*
X588195D01*
X590734Y1091796D01*
Y1089257D01*
X580577D01*
X595812Y1094335D02*
Y1084178D01*
Y1089257D01*
X598352Y1091796D01*
X600891Y1094335D01*
X603430D01*
X611047Y1084178D02*
X616126D01*
X613587D01*
Y1099413D01*
X611047D01*
X626283Y1094335D02*
X631361D01*
X633900Y1091796D01*
Y1084178D01*
X626283D01*
X623743Y1086718D01*
X626283Y1089257D01*
X633900D01*
X638978Y1094335D02*
Y1086718D01*
X641518Y1084178D01*
X649135D01*
Y1081639D01*
X646596Y1079100D01*
X644057D01*
X649135Y1084178D02*
Y1094335D01*
X448540Y1129893D02*
Y1114658D01*
X456157D01*
X458697Y1117197D01*
Y1127354D01*
X456157Y1129893D01*
X448540D01*
X463775Y1114658D02*
X468853D01*
X466314D01*
Y1124815D01*
X463775D01*
X484089Y1114658D02*
X479010D01*
X476471Y1117197D01*
Y1122276D01*
X479010Y1124815D01*
X484089D01*
X486628Y1122276D01*
Y1119737D01*
X476471D01*
X491706Y1114658D02*
X496784D01*
X494245D01*
Y1129893D01*
X491706D01*
X512019Y1114658D02*
X506941D01*
X504402Y1117197D01*
Y1122276D01*
X506941Y1124815D01*
X512019D01*
X514559Y1122276D01*
Y1119737D01*
X504402D01*
X529794Y1124815D02*
X522176D01*
X519637Y1122276D01*
Y1117197D01*
X522176Y1114658D01*
X529794D01*
X537411Y1127354D02*
Y1124815D01*
X534872D01*
X539950D01*
X537411D01*
Y1117197D01*
X539950Y1114658D01*
X547568Y1124815D02*
Y1114658D01*
Y1119737D01*
X550107Y1122276D01*
X552646Y1124815D01*
X555186D01*
X562803Y1114658D02*
X567881D01*
X565342D01*
Y1124815D01*
X562803D01*
X585656D02*
X578038D01*
X575499Y1122276D01*
Y1117197D01*
X578038Y1114658D01*
X585656D01*
X605969D02*
X611047D01*
X608508D01*
Y1129893D01*
X605969Y1127354D01*
X448540Y1160373D02*
X458697D01*
X453618D01*
Y1145138D01*
X466314D02*
X471393D01*
X473932Y1147678D01*
Y1152756D01*
X471393Y1155295D01*
X466314D01*
X463775Y1152756D01*
Y1147678D01*
X466314Y1145138D01*
X479010Y1140060D02*
Y1155295D01*
X486628D01*
X489167Y1152756D01*
Y1147678D01*
X486628Y1145138D01*
X479010D01*
X519637Y1157834D02*
X517098Y1160373D01*
X512020D01*
X509480Y1157834D01*
Y1155295D01*
X512020Y1152756D01*
X517098D01*
X519637Y1150217D01*
Y1147678D01*
X517098Y1145138D01*
X512020D01*
X509480Y1147678D01*
X524715Y1155295D02*
Y1147678D01*
X527254Y1145138D01*
X534872D01*
Y1155295D01*
X539950D02*
Y1145138D01*
Y1150217D01*
X542490Y1152756D01*
X545029Y1155295D01*
X547568D01*
X557725Y1145138D02*
Y1157834D01*
Y1152756D01*
X555186D01*
X560264D01*
X557725D01*
Y1157834D01*
X560264Y1160373D01*
X570421Y1155295D02*
X575499D01*
X578038Y1152756D01*
Y1145138D01*
X570421D01*
X567881Y1147678D01*
X570421Y1150217D01*
X578038D01*
X593273Y1155295D02*
X585656D01*
X583116Y1152756D01*
Y1147678D01*
X585656Y1145138D01*
X593273D01*
X605969D02*
X600891D01*
X598352Y1147678D01*
Y1152756D01*
X600891Y1155295D01*
X605969D01*
X608508Y1152756D01*
Y1150217D01*
X598352D01*
X638978Y1160373D02*
X628822D01*
Y1152756D01*
X633900D01*
X628822D01*
Y1145138D01*
X644057D02*
X649135D01*
X646596D01*
Y1155295D01*
X644057D01*
X656753Y1145138D02*
Y1155295D01*
X664370D01*
X666909Y1152756D01*
Y1145138D01*
X671988D02*
X677066D01*
X674527D01*
Y1155295D01*
X671988D01*
X684684Y1145138D02*
X692301D01*
X694840Y1147678D01*
X692301Y1150217D01*
X687223D01*
X684684Y1152756D01*
X687223Y1155295D01*
X694840D01*
X699919Y1160373D02*
Y1145138D01*
Y1152756D01*
X702458Y1155295D01*
X707536D01*
X710075Y1152756D01*
Y1145138D01*
X448540Y1190853D02*
X458697D01*
X453618D01*
Y1175618D01*
X466314D02*
X471393D01*
X473932Y1178158D01*
Y1183236D01*
X471393Y1185775D01*
X466314D01*
X463775Y1183236D01*
Y1178158D01*
X466314Y1175618D01*
X479010Y1170540D02*
Y1185775D01*
X486628D01*
X489167Y1183236D01*
Y1178158D01*
X486628Y1175618D01*
X479010D01*
X519637Y1188314D02*
X517098Y1190853D01*
X512020D01*
X509480Y1188314D01*
Y1178158D01*
X512020Y1175618D01*
X517098D01*
X519637Y1178158D01*
X527254Y1175618D02*
X532333D01*
X534872Y1178158D01*
Y1183236D01*
X532333Y1185775D01*
X527254D01*
X524715Y1183236D01*
Y1178158D01*
X527254Y1175618D01*
X539950Y1185775D02*
X545029Y1175618D01*
X550107Y1185775D01*
X562803Y1175618D02*
X557725D01*
X555186Y1178158D01*
Y1183236D01*
X557725Y1185775D01*
X562803D01*
X565342Y1183236D01*
Y1180697D01*
X555186D01*
X570421Y1185775D02*
Y1175618D01*
Y1180697D01*
X572960Y1183236D01*
X575499Y1185775D01*
X578038D01*
X585656Y1175618D02*
X590734D01*
X588195D01*
Y1190853D01*
X585656D01*
X600891Y1185775D02*
X605969D01*
X608508Y1183236D01*
Y1175618D01*
X600891D01*
X598352Y1178158D01*
X600891Y1180697D01*
X608508D01*
X613587Y1185775D02*
Y1178158D01*
X616126Y1175618D01*
X623743D01*
Y1173079D01*
X621204Y1170540D01*
X618665D01*
X623743Y1175618D02*
Y1185775D01*
X448540Y1221333D02*
X458697D01*
X453618D01*
Y1206098D01*
X466314D02*
X471393D01*
X473932Y1208637D01*
Y1213716D01*
X471393Y1216255D01*
X466314D01*
X463775Y1213716D01*
Y1208637D01*
X466314Y1206098D01*
X479010Y1201020D02*
Y1216255D01*
X486628D01*
X489167Y1213716D01*
Y1208637D01*
X486628Y1206098D01*
X479010D01*
X517098Y1221333D02*
X512020D01*
X509480Y1218794D01*
Y1208637D01*
X512020Y1206098D01*
X517098D01*
X519637Y1208637D01*
Y1218794D01*
X517098Y1221333D01*
X524715Y1216255D02*
X529794Y1206098D01*
X534872Y1216255D01*
X547568Y1206098D02*
X542490D01*
X539950Y1208637D01*
Y1213716D01*
X542490Y1216255D01*
X547568D01*
X550107Y1213716D01*
Y1211177D01*
X539950D01*
X555186Y1216255D02*
Y1206098D01*
Y1211177D01*
X557725Y1213716D01*
X560264Y1216255D01*
X562803D01*
X570421Y1206098D02*
X575499D01*
X572960D01*
Y1221333D01*
X570421D01*
X585656Y1216255D02*
X590734D01*
X593273Y1213716D01*
Y1206098D01*
X585656D01*
X583116Y1208637D01*
X585656Y1211177D01*
X593273D01*
X598352Y1216255D02*
Y1208637D01*
X600891Y1206098D01*
X608508D01*
Y1203559D01*
X605969Y1201020D01*
X603430D01*
X608508Y1206098D02*
Y1216255D01*
X448540Y1251813D02*
X458697D01*
X453618D01*
Y1236578D01*
X466314D02*
X471393D01*
X473932Y1239118D01*
Y1244196D01*
X471393Y1246735D01*
X466314D01*
X463775Y1244196D01*
Y1239118D01*
X466314Y1236578D01*
X479010Y1231500D02*
Y1246735D01*
X486628D01*
X489167Y1244196D01*
Y1239118D01*
X486628Y1236578D01*
X479010D01*
X519637Y1249274D02*
X517098Y1251813D01*
X512020D01*
X509480Y1249274D01*
Y1246735D01*
X512020Y1244196D01*
X517098D01*
X519637Y1241657D01*
Y1239118D01*
X517098Y1236578D01*
X512020D01*
X509480Y1239118D01*
X527254Y1249274D02*
Y1246735D01*
X524715D01*
X529794D01*
X527254D01*
Y1239118D01*
X529794Y1236578D01*
X537411D02*
X542490D01*
X539950D01*
Y1246735D01*
X537411D01*
X552646Y1236578D02*
Y1249274D01*
Y1244196D01*
X550107D01*
X555186D01*
X552646D01*
Y1249274D01*
X555186Y1251813D01*
X565342Y1236578D02*
Y1249274D01*
Y1244196D01*
X562803D01*
X567881D01*
X565342D01*
Y1249274D01*
X567881Y1251813D01*
X583116Y1236578D02*
X578038D01*
X575499Y1239118D01*
Y1244196D01*
X578038Y1246735D01*
X583116D01*
X585656Y1244196D01*
Y1241657D01*
X575499D01*
X590734Y1236578D02*
Y1246735D01*
X598352D01*
X600891Y1244196D01*
Y1236578D01*
X613587D02*
X608508D01*
X605969Y1239118D01*
Y1244196D01*
X608508Y1246735D01*
X613587D01*
X616126Y1244196D01*
Y1241657D01*
X605969D01*
X621204Y1246735D02*
Y1236578D01*
Y1241657D01*
X623743Y1244196D01*
X626283Y1246735D01*
X628822D01*
X745635Y1282293D02*
X755792D01*
X750714D01*
Y1267058D01*
X760871Y1282293D02*
Y1267058D01*
Y1274676D01*
X763410Y1277215D01*
X768488D01*
X771027Y1274676D01*
Y1267058D01*
X776105D02*
X781184D01*
X778645D01*
Y1277215D01*
X776105D01*
X798958D02*
X791341D01*
X788801Y1274676D01*
Y1269597D01*
X791341Y1267058D01*
X798958D01*
X804036D02*
Y1282293D01*
Y1272137D02*
X811654Y1277215D01*
X804036Y1272137D02*
X811654Y1267058D01*
X819272D02*
Y1277215D01*
X826889D01*
X829428Y1274676D01*
Y1267058D01*
X842124D02*
X837046D01*
X834507Y1269597D01*
Y1274676D01*
X837046Y1277215D01*
X842124D01*
X844663Y1274676D01*
Y1272137D01*
X834507D01*
X849742Y1267058D02*
X857359D01*
X859898Y1269597D01*
X857359Y1272137D01*
X852281D01*
X849742Y1274676D01*
X852281Y1277215D01*
X859898D01*
X864977Y1267058D02*
X872594D01*
X875134Y1269597D01*
X872594Y1272137D01*
X867516D01*
X864977Y1274676D01*
X867516Y1277215D01*
X875134D01*
X745635Y1066394D02*
X748175Y1068933D01*
X753253D01*
X755792Y1066394D01*
Y1056237D01*
X753253Y1053698D01*
X748175D01*
X745635Y1056237D01*
Y1066394D01*
X760871Y1053698D02*
Y1056237D01*
X763410D01*
Y1053698D01*
X760871D01*
X783723D02*
X773566D01*
X783723Y1063855D01*
Y1066394D01*
X781184Y1068933D01*
X776105D01*
X773566Y1066394D01*
X798958Y1068933D02*
X788801D01*
Y1061316D01*
X793880Y1063855D01*
X796419D01*
X798958Y1061316D01*
Y1056237D01*
X796419Y1053698D01*
X791341D01*
X788801Y1056237D01*
X804036Y1066394D02*
X806576Y1068933D01*
X811654D01*
X814193Y1066394D01*
Y1063855D01*
X811654Y1061316D01*
X814193Y1058777D01*
Y1056237D01*
X811654Y1053698D01*
X806576D01*
X804036Y1056237D01*
Y1058777D01*
X806576Y1061316D01*
X804036Y1063855D01*
Y1066394D01*
X806576Y1061316D02*
X811654D01*
X819272Y1053698D02*
Y1063855D01*
X821811D01*
X824350Y1061316D01*
Y1053698D01*
Y1061316D01*
X826889Y1063855D01*
X829428Y1061316D01*
Y1053698D01*
X834507D02*
Y1063855D01*
X837046D01*
X839585Y1061316D01*
Y1053698D01*
Y1061316D01*
X842124Y1063855D01*
X844663Y1061316D01*
Y1053698D01*
X745635Y1127354D02*
X748175Y1129893D01*
X753253D01*
X755792Y1127354D01*
Y1117197D01*
X753253Y1114658D01*
X748175D01*
X745635Y1117197D01*
Y1127354D01*
X760871Y1114658D02*
Y1117197D01*
X763410D01*
Y1114658D01*
X760871D01*
X773566Y1127354D02*
X776105Y1129893D01*
X781184D01*
X783723Y1127354D01*
Y1117197D01*
X781184Y1114658D01*
X776105D01*
X773566Y1117197D01*
Y1127354D01*
X798958Y1114658D02*
X788801D01*
X798958Y1124815D01*
Y1127354D01*
X796419Y1129893D01*
X791341D01*
X788801Y1127354D01*
X814193Y1129893D02*
X804036D01*
Y1122276D01*
X809115Y1124815D01*
X811654D01*
X814193Y1122276D01*
Y1117197D01*
X811654Y1114658D01*
X806576D01*
X804036Y1117197D01*
X819272Y1114658D02*
Y1124815D01*
X821811D01*
X824350Y1122276D01*
Y1114658D01*
Y1122276D01*
X826889Y1124815D01*
X829428Y1122276D01*
Y1114658D01*
X834507D02*
Y1124815D01*
X837046D01*
X839585Y1122276D01*
Y1114658D01*
Y1122276D01*
X842124Y1124815D01*
X844663Y1122276D01*
Y1114658D01*
X745635Y1157834D02*
X748175Y1160373D01*
X753253D01*
X755792Y1157834D01*
Y1147678D01*
X753253Y1145138D01*
X748175D01*
X745635Y1147678D01*
Y1157834D01*
X760871Y1145138D02*
Y1147678D01*
X763410D01*
Y1145138D01*
X760871D01*
X773566Y1157834D02*
X776105Y1160373D01*
X781184D01*
X783723Y1157834D01*
Y1147678D01*
X781184Y1145138D01*
X776105D01*
X773566Y1147678D01*
Y1157834D01*
X788801D02*
X791341Y1160373D01*
X796419D01*
X798958Y1157834D01*
Y1147678D01*
X796419Y1145138D01*
X791341D01*
X788801Y1147678D01*
Y1157834D01*
X804036D02*
X806576Y1160373D01*
X811654D01*
X814193Y1157834D01*
Y1147678D01*
X811654Y1145138D01*
X806576D01*
X804036Y1147678D01*
Y1157834D01*
X819272Y1145138D02*
Y1155295D01*
X821811D01*
X824350Y1152756D01*
Y1145138D01*
Y1152756D01*
X826889Y1155295D01*
X829428Y1152756D01*
Y1145138D01*
X834507D02*
Y1155295D01*
X837046D01*
X839585Y1152756D01*
Y1145138D01*
Y1152756D01*
X842124Y1155295D01*
X844663Y1152756D01*
Y1145138D01*
X745635Y1188314D02*
X748175Y1190853D01*
X753253D01*
X755792Y1188314D01*
Y1178158D01*
X753253Y1175618D01*
X748175D01*
X745635Y1178158D01*
Y1188314D01*
X760871Y1175618D02*
Y1178158D01*
X763410D01*
Y1175618D01*
X760871D01*
X773566Y1188314D02*
X776105Y1190853D01*
X781184D01*
X783723Y1188314D01*
Y1178158D01*
X781184Y1175618D01*
X776105D01*
X773566Y1178158D01*
Y1188314D01*
X798958Y1175618D02*
X788801D01*
X798958Y1185775D01*
Y1188314D01*
X796419Y1190853D01*
X791341D01*
X788801Y1188314D01*
X804036D02*
X806576Y1190853D01*
X811654D01*
X814193Y1188314D01*
Y1185775D01*
X811654Y1183236D01*
X814193Y1180697D01*
Y1178158D01*
X811654Y1175618D01*
X806576D01*
X804036Y1178158D01*
Y1180697D01*
X806576Y1183236D01*
X804036Y1185775D01*
Y1188314D01*
X806576Y1183236D02*
X811654D01*
X819272Y1175618D02*
Y1185775D01*
X821811D01*
X824350Y1183236D01*
Y1175618D01*
Y1183236D01*
X826889Y1185775D01*
X829428Y1183236D01*
Y1175618D01*
X834507D02*
Y1185775D01*
X837046D01*
X839585Y1183236D01*
Y1175618D01*
Y1183236D01*
X842124Y1185775D01*
X844663Y1183236D01*
Y1175618D01*
X745635Y1249274D02*
X748175Y1251813D01*
X753253D01*
X755792Y1249274D01*
Y1239118D01*
X753253Y1236578D01*
X748175D01*
X745635Y1239118D01*
Y1249274D01*
X760871Y1236578D02*
Y1239118D01*
X763410D01*
Y1236578D01*
X760871D01*
X783723D02*
X773566D01*
X783723Y1246735D01*
Y1249274D01*
X781184Y1251813D01*
X776105D01*
X773566Y1249274D01*
X798958Y1251813D02*
X788801D01*
Y1244196D01*
X793880Y1246735D01*
X796419D01*
X798958Y1244196D01*
Y1239118D01*
X796419Y1236578D01*
X791341D01*
X788801Y1239118D01*
X804036Y1249274D02*
X806576Y1251813D01*
X811654D01*
X814193Y1249274D01*
Y1246735D01*
X811654Y1244196D01*
X814193Y1241657D01*
Y1239118D01*
X811654Y1236578D01*
X806576D01*
X804036Y1239118D01*
Y1241657D01*
X806576Y1244196D01*
X804036Y1246735D01*
Y1249274D01*
X806576Y1244196D02*
X811654D01*
X819272Y1236578D02*
Y1246735D01*
X821811D01*
X824350Y1244196D01*
Y1236578D01*
Y1244196D01*
X826889Y1246735D01*
X829428Y1244196D01*
Y1236578D01*
X834507D02*
Y1246735D01*
X837046D01*
X839585Y1244196D01*
Y1236578D01*
Y1244196D01*
X842124Y1246735D01*
X844663Y1244196D01*
Y1236578D01*
X910694Y1282293D02*
X920850D01*
X915772D01*
Y1267058D01*
X928468D02*
X933546D01*
X936085Y1269597D01*
Y1274676D01*
X933546Y1277215D01*
X928468D01*
X925929Y1274676D01*
Y1269597D01*
X928468Y1267058D01*
X941164Y1261980D02*
Y1277215D01*
X948781D01*
X951320Y1274676D01*
Y1269597D01*
X948781Y1267058D01*
X941164D01*
X981790Y1279754D02*
X979251Y1282293D01*
X974173D01*
X971634Y1279754D01*
Y1277215D01*
X974173Y1274676D01*
X979251D01*
X981790Y1272137D01*
Y1269597D01*
X979251Y1267058D01*
X974173D01*
X971634Y1269597D01*
X989408Y1279754D02*
Y1277215D01*
X986869D01*
X991947D01*
X989408D01*
Y1269597D01*
X991947Y1267058D01*
X999565D02*
X1004643D01*
X1002104D01*
Y1277215D01*
X999565D01*
X1014800Y1267058D02*
Y1279754D01*
Y1274676D01*
X1012261D01*
X1017339D01*
X1014800D01*
Y1279754D01*
X1017339Y1282293D01*
X1027496Y1267058D02*
Y1279754D01*
Y1274676D01*
X1024957D01*
X1030035D01*
X1027496D01*
Y1279754D01*
X1030035Y1282293D01*
X1045270Y1267058D02*
X1040192D01*
X1037652Y1269597D01*
Y1274676D01*
X1040192Y1277215D01*
X1045270D01*
X1047809Y1274676D01*
Y1272137D01*
X1037652D01*
X1052887Y1267058D02*
Y1277215D01*
X1060505D01*
X1063044Y1274676D01*
Y1267058D01*
X1075740D02*
X1070662D01*
X1068123Y1269597D01*
Y1274676D01*
X1070662Y1277215D01*
X1075740D01*
X1078279Y1274676D01*
Y1272137D01*
X1068123D01*
X1083358Y1277215D02*
Y1267058D01*
Y1272137D01*
X1085897Y1274676D01*
X1088436Y1277215D01*
X1090975D01*
X1126535Y1282293D02*
Y1267058D01*
X1134153D01*
X1136692Y1269597D01*
Y1272137D01*
X1134153Y1274676D01*
X1126535D01*
X1134153D01*
X1136692Y1277215D01*
Y1279754D01*
X1134153Y1282293D01*
X1126535D01*
X1144309Y1267058D02*
X1149388D01*
X1151927Y1269597D01*
Y1274676D01*
X1149388Y1277215D01*
X1144309D01*
X1141770Y1274676D01*
Y1269597D01*
X1144309Y1267058D01*
X1159545Y1279754D02*
Y1277215D01*
X1157005D01*
X1162084D01*
X1159545D01*
Y1269597D01*
X1162084Y1267058D01*
X1172240Y1279754D02*
Y1277215D01*
X1169701D01*
X1174780D01*
X1172240D01*
Y1269597D01*
X1174780Y1267058D01*
X1184936D02*
X1190015D01*
X1192554Y1269597D01*
Y1274676D01*
X1190015Y1277215D01*
X1184936D01*
X1182397Y1274676D01*
Y1269597D01*
X1184936Y1267058D01*
X1197632D02*
Y1277215D01*
X1200171D01*
X1202710Y1274676D01*
Y1267058D01*
Y1274676D01*
X1205250Y1277215D01*
X1207789Y1274676D01*
Y1267058D01*
X1238259Y1279754D02*
X1235720Y1282293D01*
X1230641D01*
X1228102Y1279754D01*
Y1277215D01*
X1230641Y1274676D01*
X1235720D01*
X1238259Y1272137D01*
Y1269597D01*
X1235720Y1267058D01*
X1230641D01*
X1228102Y1269597D01*
X1245877Y1279754D02*
Y1277215D01*
X1243337D01*
X1248416D01*
X1245877D01*
Y1269597D01*
X1248416Y1267058D01*
X1256033D02*
X1261112D01*
X1258572D01*
Y1277215D01*
X1256033D01*
X1271268Y1267058D02*
Y1279754D01*
Y1274676D01*
X1268729D01*
X1273808D01*
X1271268D01*
Y1279754D01*
X1273808Y1282293D01*
X1283964Y1267058D02*
Y1279754D01*
Y1274676D01*
X1281425D01*
X1286503D01*
X1283964D01*
Y1279754D01*
X1286503Y1282293D01*
X1301738Y1267058D02*
X1296660D01*
X1294121Y1269597D01*
Y1274676D01*
X1296660Y1277215D01*
X1301738D01*
X1304278Y1274676D01*
Y1272137D01*
X1294121D01*
X1309356Y1267058D02*
Y1277215D01*
X1316974D01*
X1319513Y1274676D01*
Y1267058D01*
X1332209D02*
X1327130D01*
X1324591Y1269597D01*
Y1274676D01*
X1327130Y1277215D01*
X1332209D01*
X1334748Y1274676D01*
Y1272137D01*
X1324591D01*
X1339826Y1277215D02*
Y1267058D01*
Y1272137D01*
X1342365Y1274676D01*
X1344904Y1277215D01*
X1347444D01*
X1383004Y1267058D02*
Y1282293D01*
X1393160Y1267058D01*
Y1282293D01*
X1400778Y1267058D02*
X1405856D01*
X1408396Y1269597D01*
Y1274676D01*
X1405856Y1277215D01*
X1400778D01*
X1398239Y1274676D01*
Y1269597D01*
X1400778Y1267058D01*
X1438866Y1279754D02*
X1436326Y1282293D01*
X1431248D01*
X1428709Y1279754D01*
Y1277215D01*
X1431248Y1274676D01*
X1436326D01*
X1438866Y1272137D01*
Y1269597D01*
X1436326Y1267058D01*
X1431248D01*
X1428709Y1269597D01*
X1446483Y1279754D02*
Y1277215D01*
X1443944D01*
X1449022D01*
X1446483D01*
Y1269597D01*
X1449022Y1267058D01*
X1456640D02*
X1461718D01*
X1459179D01*
Y1277215D01*
X1456640D01*
X1471875Y1267058D02*
Y1279754D01*
Y1274676D01*
X1469336D01*
X1474414D01*
X1471875D01*
Y1279754D01*
X1474414Y1282293D01*
X1484571Y1267058D02*
Y1279754D01*
Y1274676D01*
X1482032D01*
X1487110D01*
X1484571D01*
Y1279754D01*
X1487110Y1282293D01*
X1502345Y1267058D02*
X1497267D01*
X1494727Y1269597D01*
Y1274676D01*
X1497267Y1277215D01*
X1502345D01*
X1504884Y1274676D01*
Y1272137D01*
X1494727D01*
X1509963Y1267058D02*
Y1277215D01*
X1517580D01*
X1520119Y1274676D01*
Y1267058D01*
X1532815D02*
X1527737D01*
X1525198Y1269597D01*
Y1274676D01*
X1527737Y1277215D01*
X1532815D01*
X1535354Y1274676D01*
Y1272137D01*
X1525198D01*
X1540433Y1277215D02*
Y1267058D01*
Y1272137D01*
X1542972Y1274676D01*
X1545511Y1277215D01*
X1548050D01*
X448540Y1038453D02*
X458697D01*
X453618D01*
Y1023218D01*
X466314D02*
X471393D01*
X473932Y1025758D01*
Y1030836D01*
X471393Y1033375D01*
X466314D01*
X463775Y1030836D01*
Y1025758D01*
X466314Y1023218D01*
X481549Y1035914D02*
Y1033375D01*
X479010D01*
X484089D01*
X481549D01*
Y1025758D01*
X484089Y1023218D01*
X494245Y1033375D02*
X499324D01*
X501863Y1030836D01*
Y1023218D01*
X494245D01*
X491706Y1025758D01*
X494245Y1028297D01*
X501863D01*
X506941Y1023218D02*
X512019D01*
X509480D01*
Y1038453D01*
X506941D01*
X534872D02*
Y1023218D01*
X542490D01*
X545029Y1025758D01*
Y1028297D01*
Y1030836D01*
X542490Y1033375D01*
X534872D01*
X552646Y1023218D02*
X557725D01*
X560264Y1025758D01*
Y1030836D01*
X557725Y1033375D01*
X552646D01*
X550107Y1030836D01*
Y1025758D01*
X552646Y1023218D01*
X567881Y1033375D02*
X572960D01*
X575499Y1030836D01*
Y1023218D01*
X567881D01*
X565342Y1025758D01*
X567881Y1028297D01*
X575499D01*
X580577Y1033375D02*
Y1023218D01*
Y1028297D01*
X583116Y1030836D01*
X585656Y1033375D01*
X588195D01*
X605969Y1038453D02*
Y1023218D01*
X598352D01*
X595812Y1025758D01*
Y1030836D01*
X598352Y1033375D01*
X605969D01*
X628822Y1035914D02*
Y1033375D01*
X626283D01*
X631361D01*
X628822D01*
Y1025758D01*
X631361Y1023218D01*
X638978Y1038453D02*
Y1023218D01*
Y1030836D01*
X641518Y1033375D01*
X646596D01*
X649135Y1030836D01*
Y1023218D01*
X654213D02*
X659292D01*
X656753D01*
Y1033375D01*
X654213D01*
X677066D02*
X669448D01*
X666909Y1030836D01*
Y1025758D01*
X669448Y1023218D01*
X677066D01*
X682144D02*
Y1038453D01*
Y1028297D02*
X689762Y1033375D01*
X682144Y1028297D02*
X689762Y1023218D01*
X697380D02*
Y1033375D01*
X704997D01*
X707536Y1030836D01*
Y1023218D01*
X720232D02*
X715154D01*
X712615Y1025758D01*
Y1030836D01*
X715154Y1033375D01*
X720232D01*
X722771Y1030836D01*
Y1028297D01*
X712615D01*
X727850Y1023218D02*
X735467D01*
X738006Y1025758D01*
X735467Y1028297D01*
X730389D01*
X727850Y1030836D01*
X730389Y1033375D01*
X738006D01*
X743085Y1023218D02*
X750702D01*
X753241Y1025758D01*
X750702Y1028297D01*
X745624D01*
X743085Y1030836D01*
X745624Y1033375D01*
X753241D01*
X778633Y1023218D02*
X773555Y1028297D01*
Y1033375D01*
X778633Y1038453D01*
X786251D02*
Y1023218D01*
X793868D01*
X796407Y1025758D01*
Y1028297D01*
X793868Y1030836D01*
X786251D01*
X793868D01*
X796407Y1033375D01*
Y1035914D01*
X793868Y1038453D01*
X786251D01*
X804025Y1023218D02*
X809103D01*
X811643Y1025758D01*
Y1030836D01*
X809103Y1033375D01*
X804025D01*
X801486Y1030836D01*
Y1025758D01*
X804025Y1023218D01*
X819260Y1033375D02*
X824338D01*
X826878Y1030836D01*
Y1023218D01*
X819260D01*
X816721Y1025758D01*
X819260Y1028297D01*
X826878D01*
X831956Y1033375D02*
Y1023218D01*
Y1028297D01*
X834495Y1030836D01*
X837034Y1033375D01*
X839574D01*
X857348Y1038453D02*
Y1023218D01*
X849730D01*
X847191Y1025758D01*
Y1030836D01*
X849730Y1033375D01*
X857348D01*
X877661Y1038453D02*
Y1023218D01*
X887818D01*
X895435Y1033375D02*
X900514D01*
X903053Y1030836D01*
Y1023218D01*
X895435D01*
X892896Y1025758D01*
X895435Y1028297D01*
X903053D01*
X908131Y1033375D02*
Y1025758D01*
X910670Y1023218D01*
X918288D01*
Y1020679D01*
X915749Y1018140D01*
X913210D01*
X918288Y1023218D02*
Y1033375D01*
X930984Y1023218D02*
X925906D01*
X923366Y1025758D01*
Y1030836D01*
X925906Y1033375D01*
X930984D01*
X933523Y1030836D01*
Y1028297D01*
X923366D01*
X938602Y1033375D02*
Y1023218D01*
Y1028297D01*
X941141Y1030836D01*
X943680Y1033375D01*
X946219D01*
X979228Y1035914D02*
X976689Y1038453D01*
X971611D01*
X969072Y1035914D01*
Y1033375D01*
X971611Y1030836D01*
X976689D01*
X979228Y1028297D01*
Y1025758D01*
X976689Y1023218D01*
X971611D01*
X969072Y1025758D01*
X986846Y1035914D02*
Y1033375D01*
X984307D01*
X989385D01*
X986846D01*
Y1025758D01*
X989385Y1023218D01*
X999542Y1033375D02*
X1004620D01*
X1007159Y1030836D01*
Y1023218D01*
X999542D01*
X997003Y1025758D01*
X999542Y1028297D01*
X1007159D01*
X1022394Y1033375D02*
X1014777D01*
X1012238Y1030836D01*
Y1025758D01*
X1014777Y1023218D01*
X1022394D01*
X1027473D02*
Y1038453D01*
Y1028297D02*
X1035090Y1033375D01*
X1027473Y1028297D02*
X1035090Y1023218D01*
X1042708D02*
X1047786Y1028297D01*
Y1033375D01*
X1042708Y1038453D01*
X1055404Y1033375D02*
X1057943D01*
Y1030836D01*
X1055404D01*
Y1033375D01*
Y1025758D02*
X1057943D01*
Y1023218D01*
X1055404D01*
Y1025758D01*
X1078263Y1035914D02*
X1080802Y1038453D01*
X1085880D01*
X1088420Y1035914D01*
Y1025758D01*
X1085880Y1023218D01*
X1080802D01*
X1078263Y1025758D01*
Y1035914D01*
X1093498Y1023218D02*
Y1025758D01*
X1096037D01*
Y1023218D01*
X1093498D01*
X1106194Y1035914D02*
X1108733Y1038453D01*
X1113811D01*
X1116350Y1035914D01*
Y1025758D01*
X1113811Y1023218D01*
X1108733D01*
X1106194Y1025758D01*
Y1035914D01*
X1121429Y1038453D02*
X1131586D01*
Y1035914D01*
X1121429Y1025758D01*
Y1023218D01*
X1136664Y1035914D02*
X1139203Y1038453D01*
X1144281D01*
X1146821Y1035914D01*
Y1025758D01*
X1144281Y1023218D01*
X1139203D01*
X1136664Y1025758D01*
Y1035914D01*
X1151899Y1023218D02*
Y1033375D01*
X1154438D01*
X1156977Y1030836D01*
Y1023218D01*
Y1030836D01*
X1159517Y1033375D01*
X1162056Y1030836D01*
Y1023218D01*
X1167134D02*
Y1033375D01*
X1169673D01*
X1172212Y1030836D01*
Y1023218D01*
Y1030836D01*
X1174752Y1033375D01*
X1177291Y1030836D01*
Y1023218D01*
D26*
X516282Y962345D02*
G03*
X511768Y969061I-4513J1842D01*
G01*
X516282Y962345D02*
G03*
X517062Y935097I31227J-12742D01*
G01*
X518308Y930145D02*
G03*
X517062Y935097I-12945J-625D01*
G01*
X577959Y935097D02*
G03*
X576713Y930145I11711J-5579D01*
G01*
X577959Y935097D02*
G03*
X578739Y962345I-30447J14506D01*
G01*
X583252Y969061D02*
G03*
X578739Y962345I0J-4875D01*
G01*
X600048Y-302215D02*
G03*
X602642Y-299621I0J2594D01*
G01*
X602642Y-291838D02*
G03*
X600048Y-289243I-2594J0D01*
G01*
X589670Y-286649D02*
G03*
X592264Y-289243I2594J0D01*
G01*
X502756Y-289243D02*
G03*
X505350Y-286649I1J2594D01*
G01*
X494973Y-289243D02*
G03*
X492378Y-291837I-1J-2594D01*
G01*
X492378Y-299621D02*
G03*
X494973Y-302215I2594J-0D01*
G01*
X518323Y-304809D02*
G03*
X515728Y-302215I-2594J0D01*
G01*
X518323Y-332051D02*
G03*
X522214Y-335943I3892J0D01*
G01*
X572806D02*
G03*
X576698Y-332051I0J3892D01*
G01*
X579292Y-302215D02*
G03*
X576698Y-304810I-0J-2594D01*
G01*
X589670Y596655D02*
G03*
X585561Y614057I-38907J0D01*
G01*
X576698Y640971D02*
G03*
X580806Y623567I38918J0D01*
G01*
X514214Y623567D02*
G03*
X518323Y640971I-34803J17403D01*
G01*
X509459Y614057D02*
G03*
X505350Y596653I34806J-17404D01*
G01*
X793982Y982034D02*
G03*
X768038Y1007978I-25944J0D01*
G01*
X755066Y943117D02*
G03*
X729121Y969061I-25944J0D01*
G01*
X495621Y969061D02*
G03*
X469677Y943117I-0J-25944D01*
G01*
X456705Y1007978D02*
G03*
X430760Y982034I-1J-25944D01*
G01*
X430760Y1259438D02*
X1565830D01*
X430760Y1289918D02*
X1565830D01*
X430760Y1046078D02*
Y1289918D01*
Y1046078D02*
X727855D01*
X430760Y1076558D02*
X727855D01*
X430760Y1107038D02*
X727855D01*
X430760Y1137518D02*
X727855D01*
X430760Y1167998D02*
X727855D01*
X430760Y1198478D02*
X727855D01*
X430760Y1228958D02*
X727855D01*
Y1046078D02*
Y1289918D01*
Y1046078D02*
X892914D01*
X727855Y1076558D02*
X892914D01*
X727855Y1107038D02*
X892914D01*
X727855Y1137518D02*
X892914D01*
X727855Y1167998D02*
X892914D01*
X727855Y1198478D02*
X892914D01*
X727855Y1228958D02*
X892914D01*
Y1046078D02*
Y1289918D01*
Y1046078D02*
X1108755D01*
X892914Y1076558D02*
X1108755D01*
X892914Y1107038D02*
X1108755D01*
X892914Y1137518D02*
X1108755D01*
X892914Y1167998D02*
X1108755D01*
X892914Y1198478D02*
X1108755D01*
X892914Y1228958D02*
X1108755D01*
Y1046078D02*
Y1289918D01*
Y1046078D02*
X1365224D01*
X1108755Y1076558D02*
X1365224D01*
X1108755Y1107038D02*
X1365224D01*
X1108755Y1137518D02*
X1365224D01*
X1108755Y1167998D02*
X1365224D01*
X1108755Y1198478D02*
X1365224D01*
X1108755Y1228958D02*
X1365224D01*
Y1046078D02*
Y1289918D01*
Y1046078D02*
X1565830D01*
X1365224Y1076558D02*
X1565830D01*
X1365224Y1107038D02*
X1565830D01*
X1365224Y1137518D02*
X1565830D01*
X1365224Y1167998D02*
X1565830D01*
X1365224Y1198478D02*
X1565830D01*
X1365224Y1228958D02*
X1565830D01*
Y1046078D02*
Y1289918D01*
X505350Y468334D02*
Y591570D01*
Y468334D02*
X589670D01*
Y591570D01*
X505350D02*
X589670D01*
X583252Y969061D02*
X586427Y969061D01*
Y1007978D01*
X508594Y1007978D02*
X586427Y1007978D01*
X508594Y969061D02*
Y1007978D01*
Y969061D02*
X511768D01*
X518308Y930145D02*
X576713D01*
X602642Y-291837D02*
X602642Y-299621D01*
X592264Y-289243D02*
X600048Y-289243D01*
X589670Y-286649D02*
Y-277568D01*
X505350D02*
X589670D01*
X505350Y-286649D02*
Y-277568D01*
X494973Y-289243D02*
X502756Y-289243D01*
X492378Y-291837D02*
X492378Y-299621D01*
X494973Y-302215D02*
X515728Y-302215D01*
X518323Y-332051D02*
Y-304809D01*
X522214Y-335943D02*
X572806D01*
X576698Y-332051D02*
X576698Y-304810D01*
X579292Y-302215D02*
X600048Y-302215D01*
X505350Y-277568D02*
X589670D01*
X589670Y468334D02*
X589670Y-277568D01*
X505350Y468334D02*
X589670D01*
X505350Y-277568D02*
X505350Y468334D01*
Y591570D02*
X589670D01*
Y596655D01*
X580806Y623567D02*
X585561Y614057D01*
X576698Y640971D02*
Y929517D01*
X576713Y930145D01*
X518308D02*
X576713D01*
X518308D02*
X518323Y929517D01*
X518323Y640971D02*
X518323Y929517D01*
X509459Y614057D02*
X514214Y623567D01*
X505350Y591570D02*
Y596653D01*
X755066Y812095D02*
X793982D01*
Y982034D01*
X586427Y1007978D02*
X768038Y1007978D01*
X586427Y969061D02*
Y1007978D01*
Y969061D02*
X729121Y969061D01*
X755066Y812095D02*
Y943117D01*
X469677Y812095D02*
X469677Y943117D01*
X495621Y969061D02*
X508594Y969061D01*
Y1007978D01*
X456705D02*
X508594D01*
X430760Y812101D02*
Y982034D01*
Y812101D02*
X469677Y812095D01*
D27*
X892914Y1091798D02*
X1108755D01*
X892914Y1122278D02*
X1108755D01*
X892914Y1152758D02*
X1108755D01*
X892914Y1183238D02*
X1108755D01*
X892914Y1213718D02*
X1108755D01*
X892914Y1244198D02*
X1108755D01*
X1123995Y1046078D02*
Y1076558D01*
X1139235Y1046078D02*
Y1076558D01*
X1154475Y1046078D02*
Y1076558D01*
X1169715Y1046078D02*
Y1076558D01*
X1184955Y1046078D02*
Y1076558D01*
X1200195Y1046078D02*
Y1076558D01*
X1215435Y1046078D02*
Y1076558D01*
X1230675Y1046078D02*
Y1076558D01*
X1245915Y1046078D02*
Y1076558D01*
X1261155Y1046078D02*
Y1076558D01*
X1276395Y1046078D02*
Y1076558D01*
X1291635Y1046078D02*
Y1076558D01*
X1306875Y1046078D02*
Y1076558D01*
X1322115Y1046078D02*
Y1076558D01*
X1337355Y1046078D02*
Y1076558D01*
X1352595Y1046078D02*
Y1076558D01*
X1123995D02*
Y1107038D01*
X1139235Y1076558D02*
Y1107038D01*
X1154475Y1076558D02*
Y1107038D01*
X1169715Y1076558D02*
Y1107038D01*
X1184955Y1076558D02*
Y1107038D01*
X1200195Y1076558D02*
Y1107038D01*
X1215435Y1076558D02*
Y1107038D01*
X1230675Y1076558D02*
Y1107038D01*
X1245915Y1076558D02*
Y1107038D01*
X1261155Y1076558D02*
Y1107038D01*
X1276395Y1076558D02*
Y1107038D01*
X1291635Y1076558D02*
Y1107038D01*
X1306875Y1076558D02*
Y1107038D01*
X1322115Y1076558D02*
Y1107038D01*
X1337355Y1076558D02*
Y1107038D01*
X1352595Y1076558D02*
Y1107038D01*
X1123995D02*
Y1137518D01*
X1139235Y1107038D02*
Y1137518D01*
X1154475Y1107038D02*
Y1137518D01*
X1169715Y1107038D02*
Y1137518D01*
X1184955Y1107038D02*
Y1137518D01*
X1200195Y1107038D02*
Y1137518D01*
X1215435Y1107038D02*
Y1137518D01*
X1230675Y1107038D02*
Y1137518D01*
X1245915Y1107038D02*
Y1137518D01*
X1261155Y1107038D02*
Y1137518D01*
X1276395Y1107038D02*
Y1137518D01*
X1291635Y1107038D02*
Y1137518D01*
X1306875Y1107038D02*
Y1137518D01*
X1322115Y1107038D02*
Y1137518D01*
X1337355Y1107038D02*
Y1137518D01*
X1352595Y1107038D02*
Y1137518D01*
X1123995D02*
Y1167998D01*
X1139235Y1137518D02*
Y1167998D01*
X1154475Y1137518D02*
Y1167998D01*
X1169715Y1137518D02*
Y1167998D01*
X1184955Y1137518D02*
Y1167998D01*
X1200195Y1137518D02*
Y1167998D01*
X1215435Y1137518D02*
Y1167998D01*
X1230675Y1137518D02*
Y1167998D01*
X1245915Y1137518D02*
Y1167998D01*
X1261155Y1137518D02*
Y1167998D01*
X1276395Y1137518D02*
Y1167998D01*
X1291635Y1137518D02*
Y1167998D01*
X1306875Y1137518D02*
Y1167998D01*
X1322115Y1137518D02*
Y1167998D01*
X1337355Y1137518D02*
Y1167998D01*
X1352595Y1137518D02*
Y1167998D01*
X1123995D02*
Y1198478D01*
X1139235Y1167998D02*
Y1198478D01*
X1154475Y1167998D02*
Y1198478D01*
X1169715Y1167998D02*
Y1198478D01*
X1184955Y1167998D02*
Y1198478D01*
X1200195Y1167998D02*
Y1198478D01*
X1215435Y1167998D02*
Y1198478D01*
X1230675Y1167998D02*
Y1198478D01*
X1245915Y1167998D02*
Y1198478D01*
X1261155Y1167998D02*
Y1198478D01*
X1276395Y1167998D02*
Y1198478D01*
X1291635Y1167998D02*
Y1198478D01*
X1306875Y1167998D02*
Y1198478D01*
X1322115Y1167998D02*
Y1198478D01*
X1337355Y1167998D02*
Y1198478D01*
X1352595Y1167998D02*
Y1198478D01*
X1123995D02*
Y1228958D01*
X1139235Y1198478D02*
Y1228958D01*
X1154475Y1198478D02*
Y1228958D01*
X1169715Y1198478D02*
Y1228958D01*
X1184955Y1198478D02*
Y1228958D01*
X1200195Y1198478D02*
Y1228958D01*
X1215435Y1198478D02*
Y1228958D01*
X1230675Y1198478D02*
Y1228958D01*
X1245915Y1198478D02*
Y1228958D01*
X1261155Y1198478D02*
Y1228958D01*
X1276395Y1198478D02*
Y1228958D01*
X1291635Y1198478D02*
Y1228958D01*
X1306875Y1198478D02*
Y1228958D01*
X1322115Y1198478D02*
Y1228958D01*
X1337355Y1198478D02*
Y1228958D01*
X1352595Y1198478D02*
Y1228958D01*
X1550590Y1076558D02*
X1565830Y1091798D01*
X1535350Y1076558D02*
X1565830Y1107038D01*
X1520110Y1076558D02*
X1550590Y1107038D01*
X1504870Y1076558D02*
X1535350Y1107038D01*
X1489630Y1076558D02*
X1520110Y1107038D01*
X1474390Y1076558D02*
X1504870Y1107038D01*
X1459150Y1076558D02*
X1489630Y1107038D01*
X1443910Y1076558D02*
X1474390Y1107038D01*
X1428670Y1076558D02*
X1459150Y1107038D01*
X1413430Y1076558D02*
X1443910Y1107038D01*
X1398190Y1076558D02*
X1428670Y1107038D01*
X1382950Y1076558D02*
X1413430Y1107038D01*
X1367710Y1076558D02*
X1398190Y1107038D01*
X1365224Y1089312D02*
X1382950Y1107038D01*
X1365224Y1104552D02*
X1367710Y1107038D01*
X1365224Y1091798D02*
X1380464Y1076558D01*
X1365224Y1107038D02*
X1395704Y1076558D01*
X1380464Y1107038D02*
X1410944Y1076558D01*
X1395704Y1107038D02*
X1426184Y1076558D01*
X1410944Y1107038D02*
X1441424Y1076558D01*
X1426184Y1107038D02*
X1456664Y1076558D01*
X1441424Y1107038D02*
X1471904Y1076558D01*
X1456664Y1107038D02*
X1487144Y1076558D01*
X1471904Y1107038D02*
X1502384Y1076558D01*
X1487144Y1107038D02*
X1517624Y1076558D01*
X1502384Y1107038D02*
X1532864Y1076558D01*
X1517624Y1107038D02*
X1548104Y1076558D01*
X1532864Y1107038D02*
X1563344Y1076558D01*
X1548104Y1107038D02*
X1565830Y1089312D01*
X1563344Y1107038D02*
X1565830Y1104552D01*
X1550590Y1107038D02*
X1565830Y1122278D01*
X1535350Y1107038D02*
X1565830Y1137518D01*
X1520110Y1107038D02*
X1550590Y1137518D01*
X1504870Y1107038D02*
X1535350Y1137518D01*
X1489630Y1107038D02*
X1520110Y1137518D01*
X1474390Y1107038D02*
X1504870Y1137518D01*
X1459150Y1107038D02*
X1489630Y1137518D01*
X1443910Y1107038D02*
X1474390Y1137518D01*
X1428670Y1107038D02*
X1459150Y1137518D01*
X1413430Y1107038D02*
X1443910Y1137518D01*
X1398190Y1107038D02*
X1428670Y1137518D01*
X1382950Y1107038D02*
X1413430Y1137518D01*
X1367710Y1107038D02*
X1398190Y1137518D01*
X1365224Y1119792D02*
X1382950Y1137518D01*
X1365224Y1135032D02*
X1367710Y1137518D01*
X1365224Y1122278D02*
X1380464Y1107038D01*
X1365224Y1137518D02*
X1395704Y1107038D01*
X1380464Y1137518D02*
X1410944Y1107038D01*
X1395704Y1137518D02*
X1426184Y1107038D01*
X1410944Y1137518D02*
X1441424Y1107038D01*
X1426184Y1137518D02*
X1456664Y1107038D01*
X1441424Y1137518D02*
X1471904Y1107038D01*
X1456664Y1137518D02*
X1487144Y1107038D01*
X1471904Y1137518D02*
X1502384Y1107038D01*
X1487144Y1137518D02*
X1517624Y1107038D01*
X1502384Y1137518D02*
X1532864Y1107038D01*
X1517624Y1137518D02*
X1548104Y1107038D01*
X1532864Y1137518D02*
X1563344Y1107038D01*
X1548104Y1137518D02*
X1565830Y1119792D01*
X1563344Y1137518D02*
X1565830Y1135032D01*
X1550590Y1137518D02*
X1565830Y1152758D01*
X1535350Y1137518D02*
X1565830Y1167998D01*
X1520110Y1137518D02*
X1550590Y1167998D01*
X1504870Y1137518D02*
X1535350Y1167998D01*
X1489630Y1137518D02*
X1520110Y1167998D01*
X1474390Y1137518D02*
X1504870Y1167998D01*
X1459150Y1137518D02*
X1489630Y1167998D01*
X1443910Y1137518D02*
X1474390Y1167998D01*
X1428670Y1137518D02*
X1459150Y1167998D01*
X1413430Y1137518D02*
X1443910Y1167998D01*
X1398190Y1137518D02*
X1428670Y1167998D01*
X1382950Y1137518D02*
X1413430Y1167998D01*
X1367710Y1137518D02*
X1398190Y1167998D01*
X1365224Y1150272D02*
X1382950Y1167998D01*
X1365224Y1165512D02*
X1367710Y1167998D01*
X1365224Y1152758D02*
X1380464Y1137518D01*
X1365224Y1167998D02*
X1395704Y1137518D01*
X1380464Y1167998D02*
X1410944Y1137518D01*
X1395704Y1167998D02*
X1426184Y1137518D01*
X1410944Y1167998D02*
X1441424Y1137518D01*
X1426184Y1167998D02*
X1456664Y1137518D01*
X1441424Y1167998D02*
X1471904Y1137518D01*
X1456664Y1167998D02*
X1487144Y1137518D01*
X1471904Y1167998D02*
X1502384Y1137518D01*
X1487144Y1167998D02*
X1517624Y1137518D01*
X1502384Y1167998D02*
X1532864Y1137518D01*
X1517624Y1167998D02*
X1548104Y1137518D01*
X1532864Y1167998D02*
X1563344Y1137518D01*
X1548104Y1167998D02*
X1565830Y1150272D01*
X1563344Y1167998D02*
X1565830Y1165512D01*
X1550590Y1167998D02*
X1565830Y1183238D01*
X1535350Y1167998D02*
X1565830Y1198478D01*
X1520110Y1167998D02*
X1550590Y1198478D01*
X1504870Y1167998D02*
X1535350Y1198478D01*
X1489630Y1167998D02*
X1520110Y1198478D01*
X1474390Y1167998D02*
X1504870Y1198478D01*
X1459150Y1167998D02*
X1489630Y1198478D01*
X1443910Y1167998D02*
X1474390Y1198478D01*
X1428670Y1167998D02*
X1459150Y1198478D01*
X1413430Y1167998D02*
X1443910Y1198478D01*
X1398190Y1167998D02*
X1428670Y1198478D01*
X1382950Y1167998D02*
X1413430Y1198478D01*
X1367710Y1167998D02*
X1398190Y1198478D01*
X1365224Y1180752D02*
X1382950Y1198478D01*
X1365224Y1195992D02*
X1367710Y1198478D01*
X1365224Y1183238D02*
X1380464Y1167998D01*
X1365224Y1198478D02*
X1395704Y1167998D01*
X1380464Y1198478D02*
X1410944Y1167998D01*
X1395704Y1198478D02*
X1426184Y1167998D01*
X1410944Y1198478D02*
X1441424Y1167998D01*
X1426184Y1198478D02*
X1456664Y1167998D01*
X1441424Y1198478D02*
X1471904Y1167998D01*
X1456664Y1198478D02*
X1487144Y1167998D01*
X1471904Y1198478D02*
X1502384Y1167998D01*
X1487144Y1198478D02*
X1517624Y1167998D01*
X1502384Y1198478D02*
X1532864Y1167998D01*
X1517624Y1198478D02*
X1548104Y1167998D01*
X1532864Y1198478D02*
X1563344Y1167998D01*
X1548104Y1198478D02*
X1565830Y1180752D01*
X1563344Y1198478D02*
X1565830Y1195992D01*
X1550590Y1198478D02*
X1565830Y1213718D01*
X1535350Y1198478D02*
X1565830Y1228958D01*
X1520110Y1198478D02*
X1550590Y1228958D01*
X1504870Y1198478D02*
X1535350Y1228958D01*
X1489630Y1198478D02*
X1520110Y1228958D01*
X1474390Y1198478D02*
X1504870Y1228958D01*
X1459150Y1198478D02*
X1489630Y1228958D01*
X1443910Y1198478D02*
X1474390Y1228958D01*
X1428670Y1198478D02*
X1459150Y1228958D01*
X1413430Y1198478D02*
X1443910Y1228958D01*
X1398190Y1198478D02*
X1428670Y1228958D01*
X1382950Y1198478D02*
X1413430Y1228958D01*
X1367710Y1198478D02*
X1398190Y1228958D01*
X1365224Y1211232D02*
X1382950Y1228958D01*
X1365224Y1226472D02*
X1367710Y1228958D01*
X1365224Y1213718D02*
X1380464Y1198478D01*
X1365224Y1228958D02*
X1395704Y1198478D01*
X1380464Y1228958D02*
X1410944Y1198478D01*
X1395704Y1228958D02*
X1426184Y1198478D01*
X1410944Y1228958D02*
X1441424Y1198478D01*
X1426184Y1228958D02*
X1456664Y1198478D01*
X1441424Y1228958D02*
X1471904Y1198478D01*
X1456664Y1228958D02*
X1487144Y1198478D01*
X1471904Y1228958D02*
X1502384Y1198478D01*
X1487144Y1228958D02*
X1517624Y1198478D01*
X1502384Y1228958D02*
X1532864Y1198478D01*
X1517624Y1228958D02*
X1548104Y1198478D01*
X1532864Y1228958D02*
X1563344Y1198478D01*
X1548104Y1228958D02*
X1565830Y1211232D01*
X1563344Y1228958D02*
X1565830Y1226472D01*
X505350Y483437D02*
X589670Y483712D01*
X505350Y498677D02*
X589670Y498951D01*
X505350Y513917D02*
X589670Y514192D01*
X505350Y529157D02*
X589670Y529431D01*
X505350Y544397D02*
X589670Y544672D01*
X505350Y559637D02*
X589670Y559911D01*
X505350Y574877D02*
X589670Y575151D01*
X505350Y590117D02*
X589670Y590392D01*
X514028Y945247D02*
X580993Y945522D01*
X515551Y960487D02*
X579469Y960762D01*
X508594Y975727D02*
X586427Y976002D01*
X508594Y990967D02*
X586427Y991242D01*
X508594Y1006207D02*
X586427Y1006482D01*
X507481Y-302215D02*
X507756Y-277568D01*
X522721Y-335943D02*
X522996Y-277568D01*
X537961Y-335943D02*
X538236Y-277568D01*
X553201Y-335943D02*
X553476Y-277568D01*
X568441Y-335943D02*
X568716Y-277568D01*
X583681Y-302215D02*
X583956Y-277568D01*
X598921Y-302215D02*
X599196Y-289243D01*
X574292Y-277705D02*
X589670Y-262328D01*
X559053Y-277705D02*
X589670Y-247088D01*
X543812Y-277705D02*
X589670Y-231848D01*
X528573Y-277705D02*
X589670Y-216608D01*
X513332Y-277705D02*
X589670Y-201368D01*
X505350Y-270448D02*
X589670Y-186128D01*
X505350Y-255208D02*
X589670Y-170888D01*
X505350Y-239967D02*
X589670Y-155648D01*
X505350Y-224727D02*
X589670Y-140408D01*
X505350Y-209487D02*
X589670Y-125168D01*
X505350Y-194247D02*
X589670Y-109928D01*
X505350Y-179007D02*
X589670Y-94688D01*
X505350Y-163768D02*
X589670Y-79448D01*
X505350Y-148527D02*
X589670Y-64208D01*
X505350Y-133287D02*
X589670Y-48968D01*
X505350Y-118048D02*
X589670Y-33728D01*
X505350Y-102808D02*
X589670Y-18488D01*
X505350Y-87568D02*
X589670Y-3248D01*
X505350Y-72327D02*
X589670Y11992D01*
X505350Y-57087D02*
X589670Y27232D01*
X505350Y-41848D02*
X589670Y42472D01*
X505350Y-26607D02*
X589670Y57712D01*
X505350Y-11367D02*
X589670Y72952D01*
X505350Y3873D02*
X589670Y88192D01*
X505350Y19112D02*
X589670Y103432D01*
X505350Y34353D02*
X589670Y118672D01*
X505350Y49592D02*
X589670Y133912D01*
X505350Y64833D02*
X589670Y149152D01*
X505350Y80072D02*
X589670Y164392D01*
X505350Y95312D02*
X589670Y179632D01*
X505350Y110553D02*
X589670Y194872D01*
X505350Y125793D02*
X589670Y210112D01*
X505350Y141032D02*
X589670Y225352D01*
X505350Y156272D02*
X589670Y240592D01*
X505350Y171513D02*
X589670Y255832D01*
X505350Y186752D02*
X589670Y271072D01*
X505350Y201992D02*
X589670Y286312D01*
X505350Y217232D02*
X589670Y301552D01*
X505350Y232472D02*
X589670Y316792D01*
X505350Y247712D02*
X589670Y332032D01*
X505350Y262952D02*
X589670Y347272D01*
X505350Y278193D02*
X589670Y362512D01*
X505350Y293433D02*
X589670Y377752D01*
X505350Y308673D02*
X589670Y392992D01*
X505350Y323913D02*
X589670Y408232D01*
X505350Y339153D02*
X589670Y423472D01*
X505350Y354393D02*
X589670Y438712D01*
X505350Y369633D02*
X589670Y453952D01*
X505350Y384873D02*
X588950Y468471D01*
X505350Y400113D02*
X573709Y468471D01*
X505350Y415353D02*
X558470Y468471D01*
X505350Y430593D02*
X543229Y468471D01*
X505350Y445833D02*
X527990Y468471D01*
X505350Y461073D02*
X512749Y468471D01*
X505350Y-262328D02*
X520728Y-277705D01*
X505350Y-247088D02*
X535968Y-277705D01*
X505350Y-231848D02*
X551208Y-277705D01*
X505350Y-216608D02*
X566448Y-277705D01*
X505350Y-201368D02*
X581688Y-277705D01*
X505350Y-186128D02*
X589670Y-270448D01*
X505350Y-170888D02*
X589670Y-255208D01*
X505350Y-155648D02*
X589670Y-239967D01*
X505350Y-140408D02*
X589670Y-224727D01*
X505350Y-125168D02*
X589670Y-209487D01*
X505350Y-109928D02*
X589670Y-194247D01*
X505350Y-94688D02*
X589670Y-179007D01*
X505350Y-79448D02*
X589670Y-163768D01*
X505350Y-64208D02*
X589670Y-148527D01*
X505350Y-48968D02*
X589670Y-133287D01*
X505350Y-33728D02*
X589670Y-118048D01*
X505350Y-18488D02*
X589670Y-102808D01*
X505350Y-3248D02*
X589670Y-87568D01*
X505350Y11992D02*
X589670Y-72327D01*
X505350Y27232D02*
X589670Y-57087D01*
X505350Y42472D02*
X589670Y-41848D01*
X505350Y57712D02*
X589670Y-26607D01*
X505350Y72952D02*
X589670Y-11367D01*
X505350Y88192D02*
X589670Y3873D01*
X505350Y103432D02*
X589670Y19113D01*
X505350Y118672D02*
X589670Y34353D01*
X505350Y133912D02*
X589670Y49593D01*
X505350Y149152D02*
X589670Y64833D01*
X505350Y164392D02*
X589670Y80073D01*
X505350Y179632D02*
X589670Y95313D01*
X505350Y194872D02*
X589670Y110553D01*
X505350Y210112D02*
X589670Y125793D01*
X505350Y225352D02*
X589670Y141033D01*
X505350Y240592D02*
X589670Y156273D01*
X505350Y255832D02*
X589670Y171513D01*
X505350Y271072D02*
X589670Y186753D01*
X505350Y286312D02*
X589670Y201993D01*
X505350Y301552D02*
X589670Y217233D01*
X505350Y316792D02*
X589670Y232473D01*
X505350Y332032D02*
X589670Y247713D01*
X505350Y347272D02*
X589670Y262953D01*
X505350Y362512D02*
X589670Y278193D01*
X505350Y377752D02*
X589670Y293433D01*
X505350Y392992D02*
X589670Y308673D01*
X505350Y408232D02*
X589670Y323913D01*
X505350Y423472D02*
X589670Y339153D01*
X505350Y438712D02*
X589670Y354393D01*
X505350Y453952D02*
X589670Y369633D01*
X506071Y468471D02*
X589670Y384873D01*
X521311Y468471D02*
X589670Y400113D01*
X536551Y468471D02*
X589670Y415353D01*
X551791Y468471D02*
X589670Y430593D01*
X567031Y468471D02*
X589670Y445833D01*
X582271Y468471D02*
X589670Y461073D01*
X574292Y591432D02*
X588633Y605773D01*
X559052Y591432D02*
X584331Y616711D01*
X543812Y591432D02*
X579412Y627033D01*
X528572Y591432D02*
X576743Y639603D01*
X513332Y591432D02*
X576698Y654798D01*
X505350Y598691D02*
X576698Y670038D01*
X513247Y621828D02*
X576698Y685278D01*
X518323Y642143D02*
X576698Y700518D01*
X518323Y657383D02*
X576698Y715758D01*
X518323Y672623D02*
X576698Y730998D01*
X518323Y687863D02*
X576698Y746238D01*
X518323Y703103D02*
X576698Y761478D01*
X518323Y718343D02*
X576698Y776718D01*
X518323Y733583D02*
X576698Y791958D01*
X518323Y748823D02*
X576698Y807198D01*
X518323Y764063D02*
X576698Y822438D01*
X518323Y779303D02*
X576698Y837678D01*
X518323Y794543D02*
X576698Y852918D01*
X518323Y809783D02*
X576698Y868158D01*
X518323Y825023D02*
X576698Y883398D01*
X518323Y840263D02*
X576698Y898638D01*
X518323Y855503D02*
X576698Y913878D01*
X518323Y870743D02*
X576698Y929118D01*
X518323Y885983D02*
X562622Y930282D01*
X518323Y901223D02*
X547382Y930282D01*
X518323Y916463D02*
X532142Y930282D01*
X506388Y605773D02*
X520728Y591432D01*
X510689Y616711D02*
X535968Y591432D01*
X515608Y627032D02*
X551208Y591432D01*
X518277Y639603D02*
X566448Y591432D01*
X518323Y654798D02*
X581688Y591432D01*
X518323Y670038D02*
X589670Y598691D01*
X518323Y685278D02*
X581773Y621827D01*
X518323Y700518D02*
X576698Y642143D01*
X518323Y715758D02*
X576698Y657383D01*
X518323Y730998D02*
X576698Y672623D01*
X518323Y746238D02*
X576698Y687863D01*
X518323Y761478D02*
X576698Y703103D01*
X518323Y776718D02*
X576698Y718343D01*
X518323Y791958D02*
X576698Y733583D01*
X518323Y807198D02*
X576698Y748823D01*
X518323Y822438D02*
X576698Y764063D01*
X518323Y837678D02*
X576698Y779303D01*
X518323Y852918D02*
X576698Y794543D01*
X518323Y868158D02*
X576698Y809783D01*
X518323Y883398D02*
X576698Y825023D01*
X518323Y898638D02*
X576698Y840263D01*
X518323Y913878D02*
X576698Y855503D01*
X518323Y929118D02*
X576698Y870743D01*
X532398Y930282D02*
X576698Y885983D01*
X547638Y930282D02*
X576698Y901223D01*
X562878Y930282D02*
X576698Y916463D01*
X778605Y811957D02*
X793982Y827335D01*
X763365Y811957D02*
X793982Y842575D01*
X755066Y818898D02*
X793982Y857815D01*
X755066Y834138D02*
X793982Y873055D01*
X755066Y849378D02*
X793982Y888295D01*
X755066Y864618D02*
X793982Y903535D01*
X755066Y879858D02*
X793982Y918775D01*
X755066Y895098D02*
X793982Y934015D01*
X755066Y910338D02*
X793982Y949255D01*
X755066Y925578D02*
X793982Y964495D01*
X755066Y940818D02*
X793982Y979735D01*
X752634Y953627D02*
X791760Y992753D01*
X746163Y962395D02*
X785362Y1001595D01*
X736340Y967812D02*
X775674Y1007147D01*
X722154Y968867D02*
X761403Y1008115D01*
X706914Y968867D02*
X746163Y1008115D01*
X691674Y968867D02*
X730923Y1008115D01*
X676434Y968867D02*
X715683Y1008115D01*
X661194Y968867D02*
X700443Y1008115D01*
X645955Y968867D02*
X685203Y1008115D01*
X630714Y968867D02*
X669963Y1008115D01*
X615475Y968867D02*
X654723Y1008115D01*
X600234Y968867D02*
X639483Y1008115D01*
X586427Y970299D02*
X624243Y1008115D01*
X586427Y985539D02*
X609003Y1008115D01*
X586427Y1000779D02*
X593763Y1008115D01*
X586427Y979735D02*
X597295Y968867D01*
X586427Y994975D02*
X612535Y968867D01*
X755066Y826336D02*
X769444Y811957D01*
X588526Y1008115D02*
X627775Y968867D01*
X755066Y841576D02*
X784684Y811957D01*
X603766Y1008115D02*
X643015Y968867D01*
X755066Y856816D02*
X793982Y817899D01*
X619006Y1008115D02*
X658255Y968867D01*
X755066Y872056D02*
X793982Y833139D01*
X634246Y1008115D02*
X673495Y968867D01*
X755066Y887296D02*
X793982Y848379D01*
X649486Y1008115D02*
X688735Y968867D01*
X755066Y902536D02*
X793982Y863619D01*
X664726Y1008115D02*
X703975Y968867D01*
X755066Y917776D02*
X793982Y878859D01*
X679966Y1008115D02*
X719215Y968867D01*
X755066Y933016D02*
X793982Y894099D01*
X695206Y1008115D02*
X735303Y968018D01*
X754217Y949105D02*
X793982Y909339D01*
X710446Y1008115D02*
X793982Y924579D01*
X725686Y1008115D02*
X793982Y939819D01*
X740926Y1008115D02*
X793982Y955059D01*
X756166Y1008115D02*
X793982Y970299D01*
X771537Y1007985D02*
X793794Y985727D01*
X462737Y811958D02*
X469677Y818898D01*
X447498Y811959D02*
X469677Y834138D01*
X432258Y811960D02*
X469677Y849378D01*
X430760Y825701D02*
X469677Y864618D01*
X430760Y840941D02*
X469677Y879858D01*
X430760Y856181D02*
X469677Y895098D01*
X430760Y871421D02*
X469677Y910338D01*
X430760Y886661D02*
X469677Y925578D01*
X497726Y968867D02*
X508594Y979735D01*
X430760Y901901D02*
X469677Y940818D01*
X430760Y917141D02*
X508594Y994975D01*
X430760Y932381D02*
X506494Y1008115D01*
X430760Y947621D02*
X491254Y1008115D01*
X430760Y962861D02*
X476014Y1008115D01*
X430760Y978101D02*
X460774Y1008115D01*
X430760Y827335D02*
X446136Y811959D01*
X430760Y842575D02*
X461377Y811958D01*
X430760Y857815D02*
X469677Y818898D01*
X430760Y873055D02*
X469677Y834138D01*
X430760Y888295D02*
X469677Y849378D01*
X430760Y903535D02*
X469677Y864618D01*
X430760Y918775D02*
X469677Y879858D01*
X430760Y934015D02*
X469677Y895098D01*
X430760Y949255D02*
X469677Y910338D01*
X430760Y964495D02*
X469677Y925578D01*
X430760Y979735D02*
X469677Y940818D01*
X432982Y992753D02*
X472108Y953627D01*
X439380Y1001595D02*
X478580Y962395D01*
X449068Y1007147D02*
X488403Y967812D01*
X463340Y1008115D02*
X502588Y968867D01*
X478580Y1008115D02*
X508594Y978101D01*
X493820Y1008115D02*
X508594Y993341D01*
D28*
X21814Y1078858D02*
X11657D01*
X21814Y1089015D01*
Y1091554D01*
X19274Y1094093D01*
X14196D01*
X11657Y1091554D01*
X26892D02*
X29431Y1094093D01*
X34510D01*
X37049Y1091554D01*
Y1089015D01*
X34510Y1086476D01*
X37049Y1083937D01*
Y1081398D01*
X34510Y1078858D01*
X29431D01*
X26892Y1081398D01*
Y1083937D01*
X29431Y1086476D01*
X26892Y1089015D01*
Y1091554D01*
X29431Y1086476D02*
X34510D01*
X42127Y1078858D02*
Y1081398D01*
X44666D01*
Y1078858D01*
X42127D01*
X54823Y1091554D02*
X57362Y1094093D01*
X62441D01*
X64980Y1091554D01*
Y1081398D01*
X62441Y1078858D01*
X57362D01*
X54823Y1081398D01*
Y1091554D01*
X70058D02*
X72597Y1094093D01*
X77676D01*
X80215Y1091554D01*
Y1081398D01*
X77676Y1078858D01*
X72597D01*
X70058Y1081398D01*
Y1091554D01*
X240641Y473309D02*
Y478387D01*
Y475848D01*
X225406D01*
X227946Y473309D01*
Y486005D02*
X225406Y488544D01*
Y493623D01*
X227946Y496162D01*
X238102D01*
X240641Y493623D01*
Y488544D01*
X238102Y486005D01*
X227946D01*
Y501240D02*
X225406Y503779D01*
Y508858D01*
X227946Y511397D01*
X230485D01*
X233024Y508858D01*
Y506319D01*
Y508858D01*
X235563Y511397D01*
X238102D01*
X240641Y508858D01*
Y503779D01*
X238102Y501240D01*
X240641Y516475D02*
X238102D01*
Y519014D01*
X240641D01*
Y516475D01*
X225406Y539328D02*
X227946Y534249D01*
X233024Y529171D01*
X238102D01*
X240641Y531710D01*
Y536789D01*
X238102Y539328D01*
X235563D01*
X233024Y536789D01*
Y529171D01*
X227946Y544406D02*
X225406Y546945D01*
Y552024D01*
X227946Y554563D01*
X238102D01*
X240641Y552024D01*
Y546945D01*
X238102Y544406D01*
X227946D01*
M02*
