G04*
G04 #@! TF.GenerationSoftware,Altium Limited,Altium Designer,25.1.2 (22)*
G04*
G04 Layer_Color=10821*
%FSLAX44Y44*%
%MOMM*%
G71*
G04*
G04 #@! TF.SameCoordinates,C917C2C7-DC1F-4EFE-91AA-FEAD6B98D190*
G04*
G04*
G04 #@! TF.FilePolarity,Positive*
G04*
G01*
G75*
G36*
X-40500Y26000D02*
X-24500D01*
X-24110Y25962D01*
X-23389Y25663D01*
X-22837Y25111D01*
X-22538Y24390D01*
X-22500Y24000D01*
D01*
Y3000D01*
Y2403D01*
X-22043Y1301D01*
X-21199Y457D01*
X-20097Y0D01*
X-19500D01*
D01*
X19500D01*
X20097D01*
X21199Y457D01*
X22043Y1301D01*
X22500Y2403D01*
Y3000D01*
D01*
Y24000D01*
X22538Y24390D01*
X22837Y25111D01*
X23389Y25663D01*
X24110Y25962D01*
X24500Y26000D01*
D01*
X40500D01*
X40898D01*
X41633Y26305D01*
X42196Y26867D01*
X42500Y27602D01*
Y28000D01*
D01*
Y34000D01*
Y34398D01*
X42196Y35133D01*
X41633Y35696D01*
X40898Y36000D01*
X40500D01*
D01*
X34500D01*
X34110Y36038D01*
X33389Y36337D01*
X32837Y36889D01*
X32538Y37610D01*
X32500Y38000D01*
D01*
Y45000D01*
X-32500D01*
Y38000D01*
X-32538Y37610D01*
X-32837Y36889D01*
X-33389Y36337D01*
X-34110Y36038D01*
X-34500Y36000D01*
D01*
X-40500D01*
X-40898D01*
X-41633Y35696D01*
X-42196Y35133D01*
X-42500Y34398D01*
Y34000D01*
D01*
Y28000D01*
Y27602D01*
X-42196Y26867D01*
X-41633Y26305D01*
X-40898Y26000D01*
X-40500D01*
D01*
D02*
G37*
M02*
