G04*
G04 #@! TF.GenerationSoftware,Altium Limited,Altium Designer,25.1.2 (22)*
G04*
G04 Layer_Color=15441517*
%FSLAX44Y44*%
%MOMM*%
G71*
G04*
G04 #@! TF.SameCoordinates,C917C2C7-DC1F-4EFE-91AA-FEAD6B98D190*
G04*
G04*
G04 #@! TF.FilePolarity,Positive*
G04*
G01*
G75*
%ADD29C,0.0010*%
D29*
X0Y983500D02*
G03*
X7500Y991000I0J7500D01*
G01*
D02*
G03*
X0Y998500I-7500J0D01*
G01*
D02*
G03*
X-7500Y991000I0J-7500D01*
G01*
D02*
G03*
X0Y983500I7500J0D01*
G01*
X-70000Y1036000D02*
G03*
X-90000Y1016001I-1J-20000D01*
G01*
X190000Y1016001D02*
G03*
X170000Y1036000I-20000J0D01*
G01*
X160000Y986000D02*
G03*
X140000Y1006000I-19999J0D01*
G01*
X27553Y1006000D02*
G03*
X24073Y1000823I0J-3758D01*
G01*
X23472Y979817D02*
G03*
X24073Y1000823I-23471J11183D01*
G01*
X23472Y979817D02*
G03*
X22512Y976000I9027J-4301D01*
G01*
X22500Y753082D02*
G03*
X25667Y739666I30001J0D01*
G01*
X32500Y718920D02*
G03*
X29333Y732335I-29994J0D01*
G01*
X32500Y38000D02*
G03*
X34500Y36000I1999J0D01*
G01*
X42500Y34000D02*
G03*
X40500Y36000I-2000J0D01*
G01*
Y26000D02*
G03*
X42500Y28000I0J2000D01*
G01*
X24500Y26000D02*
G03*
X22500Y24000I-0J-2000D01*
G01*
X19500Y-0D02*
G03*
X22500Y3000I0J3000D01*
G01*
X-22500D02*
G03*
X-19500Y-0I3000J0D01*
G01*
X-22500Y24000D02*
G03*
X-24500Y26000I-1999J0D01*
G01*
X-42500Y28000D02*
G03*
X-40500Y26000I2000J-0D01*
G01*
X-40500Y36000D02*
G03*
X-42500Y34000I-0J-2000D01*
G01*
X-34500Y36000D02*
G03*
X-32500Y37999I0J1999D01*
G01*
X-29333Y732335D02*
G03*
X-32500Y718918I26831J-13416D01*
G01*
X-25667Y739666D02*
G03*
X-22500Y753082I-26829J13415D01*
G01*
X-22512Y976000D02*
G03*
X-23472Y979817I-9980J-482D01*
G01*
X-24073Y1000823D02*
G03*
X-23472Y979817I24073J-9822D01*
G01*
X-24074Y1000823D02*
G03*
X-27553Y1006000I-3479J1420D01*
G01*
X-40000Y1006000D02*
G03*
X-60000Y986000I-0J-20000D01*
G01*
X-7000Y490000D02*
Y560000D01*
X7000D01*
Y490000D02*
Y560000D01*
X-7000Y490000D02*
X7000D01*
X-90000Y885002D02*
Y1016001D01*
X-70000Y1036000D02*
X-30000D01*
X30000Y1036000D01*
X170000Y1036000D01*
X190000Y884997D02*
X190000Y1016001D01*
X160000Y884998D02*
X190000Y884997D01*
X160000Y884998D02*
Y986000D01*
X30000Y1006000D02*
X140000Y1006000D01*
X27553Y1006000D02*
X30000D01*
X22500Y975516D02*
X22512Y976000D01*
X22500Y753082D02*
Y975516D01*
X25667Y739666D02*
X29333Y732335D01*
X32500Y620000D02*
Y718920D01*
Y620000D02*
X32500Y45000D01*
Y38000D02*
Y45000D01*
X34500Y36000D02*
X40500Y36000D01*
X42500Y34000D02*
X42500Y28000D01*
X24500Y26000D02*
X40500Y26000D01*
X22500Y3000D02*
X22500Y24000D01*
X-19500Y-0D02*
X19500D01*
X-22500Y3000D02*
Y24000D01*
X-40500Y26000D02*
X-24500Y26000D01*
X-42500Y34000D02*
X-42500Y28000D01*
X-40500Y36000D02*
X-34500Y36000D01*
X-32500Y37999D02*
Y45000D01*
X-32500Y620000D01*
Y718918D01*
X-29333Y732335D02*
X-25667Y739666D01*
X-22500Y753082D02*
X-22500Y975516D01*
X-22512Y976000D02*
X-22500Y975516D01*
X-30000Y1006000D02*
X-27553D01*
X-40000Y1006000D02*
X-30000Y1006000D01*
X-60000Y884997D02*
X-60000Y986000D01*
X-90000Y885002D02*
X-60000Y884997D01*
M02*
