G04*
G04 #@! TF.GenerationSoftware,Altium Limited,Altium Designer,25.1.2 (22)*
G04*
G04 Layer_Physical_Order=1*
G04 Layer_Color=255*
%FSLAX44Y44*%
%MOMM*%
G71*
G04*
G04 #@! TF.SameCoordinates,C917C2C7-DC1F-4EFE-91AA-FEAD6B98D190*
G04*
G04*
G04 #@! TF.FilePolarity,Positive*
G04*
G01*
G75*
%ADD10C,0.1500*%
%ADD11C,0.2500*%
%ADD20C,0.2000*%
%ADD21C,0.1800*%
%ADD22R,0.2000X10.0000*%
%ADD23R,0.2500X10.0000*%
%ADD24R,0.3500X3.0000*%
%ADD25R,0.1800X10.0000*%
G36*
X170000Y1032941D02*
X171668Y1032941D01*
X174942Y1032290D01*
X178025Y1031013D01*
X180799Y1029159D01*
X183159Y1026800D01*
X185013Y1024025D01*
X186290Y1020942D01*
X186941Y1017669D01*
X186941Y1016001D01*
X186941Y888056D01*
X183000D01*
Y936704D01*
X183059Y937000D01*
Y990886D01*
X183088D01*
X182737Y995342D01*
X181693Y999689D01*
X179983Y1003819D01*
X177647Y1007630D01*
X174744Y1011030D01*
X174723Y1011009D01*
X168316Y1017416D01*
X168072Y1017579D01*
X165318Y1019995D01*
X160795Y1023017D01*
X155915Y1025423D01*
X150764Y1027172D01*
X145428Y1028233D01*
X140000Y1028589D01*
Y1028589D01*
X139970Y1028559D01*
X137000Y1028559D01*
X31000D01*
X30997Y1028558D01*
X30994Y1028559D01*
X25471Y1028549D01*
X25000Y1028595D01*
X20982Y1028199D01*
X17119Y1027027D01*
X13558Y1025124D01*
X10437Y1022563D01*
X7876Y1019442D01*
X5973Y1015881D01*
X4801Y1012018D01*
X4405Y1008000D01*
X4801Y1003982D01*
X5575Y1001431D01*
X5108Y1000906D01*
X4512Y1000560D01*
X3358Y1001038D01*
X3063Y1001096D01*
X2784Y1001212D01*
X1336Y1001500D01*
X1034D01*
X739Y1001559D01*
X-739D01*
X-1034Y1001500D01*
X-1336D01*
X-2784Y1001212D01*
X-3238Y1001534D01*
X-3513Y1001797D01*
X-3731Y1002136D01*
X-3757Y1002211D01*
X-3384Y1006000D01*
X-3848Y1010715D01*
X-5223Y1015249D01*
X-7457Y1019428D01*
X-10463Y1023090D01*
X-14125Y1026096D01*
X-18304Y1028329D01*
X-20592Y1029024D01*
X-21302Y1029239D01*
X-21344Y1029267D01*
X-21789Y1029386D01*
X-22030Y1029461D01*
X-25515Y1030020D01*
X-25760Y1030011D01*
X-26000Y1030059D01*
X-40251Y1030058D01*
X-40271Y1030074D01*
Y1030075D01*
X-45625Y1029724D01*
X-51153Y1028624D01*
X-56491Y1026812D01*
X-61547Y1024319D01*
X-66233Y1021188D01*
X-70471Y1017471D01*
X-73813Y1013661D01*
D01*
X-74316Y1013088D01*
X-75213Y1012190D01*
X-75213Y1012190D01*
X-78106Y1008803D01*
X-80434Y1005005D01*
X-82138Y1000889D01*
X-83178Y996558D01*
X-83527Y992117D01*
X-83497D01*
Y937000D01*
X-83440Y936714D01*
Y888958D01*
X-84338Y888060D01*
X-86941Y888061D01*
Y1016001D01*
X-86941Y1017669D01*
X-86290Y1020942D01*
X-85013Y1024025D01*
X-83159Y1026800D01*
X-80800Y1029159D01*
X-78025Y1031013D01*
X-74942Y1032290D01*
X-71669Y1032941D01*
X-70000Y1032941D01*
X-30000Y1032941D01*
X30000Y1032941D01*
X170000Y1032941D01*
X170000Y1032941D01*
D02*
G37*
G36*
X138730Y1013441D02*
X140000Y1013441D01*
X141235Y1013357D01*
X144138Y1013129D01*
X148175Y1012160D01*
X152010Y1010571D01*
X155550Y1008402D01*
X158616Y1005783D01*
X159448Y1004837D01*
X159448D01*
X160353Y1004001D01*
X161398Y1002957D01*
X161510Y1002882D01*
X164209Y999594D01*
X166277Y995724D01*
X167551Y991526D01*
X167968Y987292D01*
X167941Y987159D01*
Y937000D01*
X168000Y936704D01*
Y888056D01*
X163059D01*
Y986000D01*
X163044Y986075D01*
X163055Y986151D01*
X162959Y988111D01*
X162904Y988331D01*
Y988557D01*
X162139Y992403D01*
X162024Y992681D01*
X161965Y992977D01*
X160464Y996599D01*
X160297Y996849D01*
X160182Y997128D01*
X158003Y1000387D01*
X157790Y1000600D01*
X157623Y1000851D01*
X154851Y1003623D01*
X154600Y1003791D01*
X154387Y1004004D01*
X151127Y1006182D01*
X150849Y1006297D01*
X150598Y1006464D01*
X146976Y1007965D01*
X146681Y1008024D01*
X146402Y1008139D01*
X142557Y1008904D01*
X142330D01*
X142110Y1008959D01*
X140150Y1009055D01*
X140075Y1009044D01*
X140000Y1009059D01*
X30000Y1009059D01*
X27553Y1009059D01*
X27445Y1009037D01*
X27336Y1009051D01*
X27259Y1009030D01*
X27179Y1009036D01*
X26268Y1008924D01*
X25876Y1008794D01*
X25471Y1008714D01*
X25347Y1008631D01*
X25204Y1008587D01*
X23596Y1007731D01*
X23480Y1007636D01*
X23342Y1007579D01*
X23126Y1007364D01*
X22872Y1007194D01*
X22872Y1007194D01*
Y1007194D01*
X22788Y1007070D01*
X22673Y1006975D01*
X22602Y1006843D01*
X22496Y1006738D01*
X21865Y1005800D01*
X21456Y1005843D01*
X20298Y1006341D01*
X19968Y1008000D01*
X20351Y1009926D01*
X21442Y1011558D01*
X23074Y1012649D01*
X24422Y1012917D01*
X24422Y1012917D01*
Y1012917D01*
X24465Y1012969D01*
X31109Y1013441D01*
X137000D01*
X138730Y1013441D01*
D02*
G37*
G36*
X-40250Y1011941D02*
X-27590D01*
X-25921Y1011843D01*
X-25192Y1011698D01*
X-23191Y1010361D01*
X-22230Y1008922D01*
X-22331Y1008365D01*
X-22777Y1008018D01*
X-22874Y1007965D01*
X-23723Y1007799D01*
X-25204Y1008587D01*
X-25347Y1008631D01*
X-25471Y1008714D01*
X-25877Y1008794D01*
X-26269Y1008924D01*
X-27180Y1009036D01*
X-27368Y1009022D01*
X-27553Y1009059D01*
X-30000Y1009059D01*
X-40000Y1009059D01*
X-40075Y1009044D01*
X-40150Y1009055D01*
X-42110Y1008959D01*
X-42330Y1008904D01*
X-42557D01*
X-46402Y1008139D01*
X-46681Y1008024D01*
X-46976Y1007965D01*
X-50599Y1006464D01*
X-50849Y1006297D01*
X-51127Y1006182D01*
X-54387Y1004004D01*
X-54600Y1003791D01*
X-54851Y1003623D01*
X-57623Y1000851D01*
X-57623Y1000851D01*
X-57684Y1000759D01*
X-57771Y1000692D01*
X-57867Y1000524D01*
X-58004Y1000387D01*
X-60182Y997127D01*
X-60297Y996849D01*
X-60464Y996598D01*
X-61965Y992976D01*
X-61965Y992976D01*
X-62024Y992681D01*
X-62139Y992402D01*
X-62904Y988557D01*
Y988330D01*
X-62959Y988110D01*
X-63055Y986150D01*
X-63044Y986075D01*
X-63059Y986000D01*
X-63059Y888955D01*
X-63957Y888057D01*
X-67560Y888058D01*
Y936714D01*
X-67503Y937000D01*
Y985515D01*
X-67529Y985643D01*
X-67109Y989901D01*
X-65830Y994118D01*
X-63752Y998005D01*
X-61038Y1001312D01*
X-60930Y1001385D01*
X-60067Y1002247D01*
X-59122Y1002971D01*
X-59122Y1002971D01*
X-59122Y1002971D01*
X-57702Y1004702D01*
X-53908Y1007815D01*
X-49580Y1010128D01*
X-44884Y1011553D01*
X-40478Y1011987D01*
X-40250Y1011941D01*
D02*
G37*
G36*
X-17694Y971306D02*
X-17603Y971086D01*
X-17559Y969834D01*
Y967000D01*
X-17559Y584000D01*
X-17571D01*
X-17795Y582295D01*
X-18453Y580707D01*
X-19500Y579343D01*
X-19491Y579334D01*
X-23163Y575663D01*
X-23173Y575672D01*
X-25041Y573396D01*
X-26429Y570799D01*
X-27284Y567981D01*
X-27572Y565050D01*
X-27559D01*
Y486485D01*
X-27614D01*
X-27160Y481881D01*
X-25817Y477454D01*
X-23637Y473374D01*
X-20702Y469798D01*
X-20702Y469798D01*
X-19951Y468839D01*
X-19441Y468075D01*
X-19040Y466059D01*
X-19059Y465965D01*
Y454500D01*
X-19059Y39767D01*
X-19663Y39163D01*
X-20326Y38170D01*
X-20559Y37000D01*
X-20559Y37000D01*
Y34271D01*
X-20656Y34000D01*
X-21250D01*
Y32013D01*
X-21259Y31969D01*
X-21250Y31926D01*
Y31916D01*
X-21256Y31873D01*
X-21250Y31847D01*
Y29404D01*
X-21512Y29063D01*
X-22520Y28614D01*
X-22940Y28788D01*
X-23380Y28875D01*
X-23811Y29006D01*
X-24201Y29044D01*
X-24351Y29029D01*
X-24500Y29059D01*
X-39441Y29059D01*
X-39441Y32941D01*
X-34500Y32941D01*
X-34351Y32971D01*
X-34201Y32956D01*
X-33811Y32994D01*
X-33381Y33125D01*
X-32940Y33212D01*
X-32219Y33511D01*
X-32219Y33511D01*
X-32219Y33511D01*
X-32219Y33511D01*
X-32218Y33511D01*
X-31811Y33783D01*
X-31385Y34026D01*
X-31318Y34113D01*
X-31226Y34174D01*
X-31226Y34174D01*
X-31226Y34174D01*
X-30675Y34725D01*
X-30674Y34726D01*
X-30674Y34726D01*
Y34726D01*
X-30613Y34817D01*
X-30526Y34884D01*
X-30284Y35310D01*
X-30011Y35718D01*
X-30011Y35718D01*
X-30011Y35718D01*
X-29713Y36439D01*
X-29713Y36439D01*
X-29713Y36439D01*
X-29625Y36879D01*
X-29495Y37309D01*
X-29456Y37699D01*
X-29471Y37850D01*
X-29441Y37999D01*
Y45000D01*
X-29441Y620000D01*
Y715000D01*
Y720481D01*
X-29080Y723587D01*
X-28361Y726629D01*
X-27296Y729568D01*
X-22931Y738298D01*
X-22919Y738341D01*
X-22893Y738378D01*
X-22161Y739954D01*
X-22145Y740018D01*
X-22109Y740072D01*
X-22095Y740140D01*
X-22059Y740200D01*
X-20875Y743467D01*
X-20848Y743644D01*
X-20774Y743807D01*
X-19975Y747189D01*
X-19969Y747368D01*
X-19914Y747539D01*
X-19512Y750991D01*
X-19523Y751125D01*
X-19493Y751256D01*
X-19443Y752993D01*
X-19450Y753038D01*
X-19441Y753082D01*
X-19441Y971040D01*
X-18171Y971661D01*
X-17694Y971306D01*
D02*
G37*
G36*
X3162Y980002D02*
X3335Y979641D01*
X2753Y978237D01*
X2415Y975671D01*
X2441D01*
Y969500D01*
X2441Y581364D01*
X2411D01*
X2766Y577764D01*
X3816Y574302D01*
X5521Y571112D01*
X7816Y568316D01*
X7816Y568316D01*
X8543Y567347D01*
X9059Y566575D01*
X9460Y564559D01*
X9441Y564464D01*
Y563504D01*
X8171Y562826D01*
X8170Y562826D01*
X7000Y563059D01*
X-7000D01*
X-7885Y562883D01*
X-8583Y563478D01*
X-8843Y563889D01*
X-8436Y564872D01*
X-7248Y566420D01*
X-7251Y566423D01*
X-5831Y567843D01*
X-4911Y568718D01*
X-4911Y568719D01*
X-2575Y571565D01*
X-839Y574812D01*
X229Y578336D01*
X590Y582000D01*
X559D01*
X559Y969500D01*
Y973757D01*
X593D01*
X221Y976584D01*
X-870Y979218D01*
X-870Y979219D01*
X-867Y979249D01*
X-207Y980441D01*
X739D01*
X1034Y980500D01*
X1335D01*
X2404Y980713D01*
X3162Y980002D01*
D02*
G37*
G36*
X8885Y486932D02*
X9398Y486467D01*
X9190Y484885D01*
X8473Y483154D01*
X7353Y481695D01*
X7308Y481692D01*
X7308D01*
X5459Y479282D01*
X4297Y476476D01*
X3900Y473464D01*
X3941D01*
Y454500D01*
Y45000D01*
Y42267D01*
X1049Y39375D01*
X483Y39288D01*
X-612Y39438D01*
X-613Y39439D01*
X-941Y39767D01*
X-941Y454500D01*
Y471050D01*
X-928D01*
X-1216Y473981D01*
X-2071Y476799D01*
X-3459Y479396D01*
X-5328Y481672D01*
X-5328Y481672D01*
X-6129Y482610D01*
X-7609Y484539D01*
X-8164Y485878D01*
X-7250Y486991D01*
X-7000Y486941D01*
X7000D01*
X8170Y487174D01*
X8171Y487175D01*
X8885Y486932D01*
D02*
G37*
G36*
X14219Y31969D02*
X10781D01*
X11250Y34469D01*
X13750D01*
X14219Y31969D01*
D02*
G37*
G36*
X9219D02*
X5781D01*
X6250Y34469D01*
X8750D01*
X9219Y31969D01*
D02*
G37*
G36*
X4220D02*
X781D01*
X1500Y33970D01*
X3500D01*
X4220Y31969D01*
D02*
G37*
G36*
X-781D02*
X-4220D01*
X-3500Y33970D01*
X-1500D01*
X-781Y31969D01*
D02*
G37*
G36*
X-6000Y32000D02*
X-9219Y31969D01*
X-9000Y33970D01*
X-7000D01*
X-6000Y32000D01*
D02*
G37*
G36*
X-10781Y31969D02*
X-14219D01*
X-13500Y33970D01*
X-11500D01*
X-10781Y31969D01*
D02*
G37*
G36*
X-15781D02*
X-19219D01*
X-18500Y33970D01*
X-16500D01*
X-15781Y31969D01*
D02*
G37*
G36*
X19219Y31969D02*
X15781D01*
X16500Y33970D01*
X18500D01*
X19219Y31969D01*
D02*
G37*
G36*
X19441Y972314D02*
Y753082D01*
X19450Y753038D01*
X19442Y752993D01*
X19493Y751256D01*
X19523Y751125D01*
X19512Y750991D01*
X19914Y747539D01*
X19969Y747368D01*
X19975Y747189D01*
X20774Y743807D01*
X20832Y743680D01*
X20849Y743543D01*
X20849Y743542D01*
X20869Y743507D01*
X20875Y743467D01*
X22059Y740200D01*
X22095Y740140D01*
X22109Y740072D01*
X22145Y740018D01*
X22161Y739954D01*
X22893Y738378D01*
X22919Y738341D01*
X22931Y738298D01*
X26597Y730967D01*
X26597Y730966D01*
X27296Y729568D01*
X28361Y726630D01*
X29080Y723587D01*
X29441Y720483D01*
X29441Y718920D01*
X29441Y715000D01*
Y620000D01*
X29441Y45000D01*
Y38000D01*
X29471Y37851D01*
X29456Y37700D01*
X29494Y37310D01*
X29625Y36880D01*
X29713Y36439D01*
X29713Y36439D01*
X29713Y36439D01*
X30011Y35718D01*
X30284Y35310D01*
X30526Y34885D01*
X30613Y34817D01*
X30674Y34726D01*
X30674D01*
X30674Y34726D01*
X31226Y34174D01*
X31226Y34174D01*
X31226Y34174D01*
X31317Y34113D01*
X31385Y34026D01*
X31811Y33783D01*
X32218Y33511D01*
X32219Y33511D01*
X32219Y33511D01*
X32940Y33212D01*
X33380Y33125D01*
X33810Y32994D01*
X34200Y32956D01*
X34351Y32971D01*
X34500Y32941D01*
X39441Y32941D01*
X39441Y29957D01*
X38543Y29059D01*
X24500Y29059D01*
X24351Y29029D01*
X24200Y29044D01*
X23810Y29006D01*
X23380Y28875D01*
X22939Y28788D01*
X22520Y28614D01*
X21659Y28998D01*
X21250Y29369D01*
Y31847D01*
X21256Y31873D01*
X21250Y31916D01*
Y31926D01*
X21259Y31969D01*
X21250Y32013D01*
Y34000D01*
X20656D01*
X20559Y34271D01*
Y39500D01*
X20559Y39500D01*
X20326Y40671D01*
X19663Y41663D01*
X19663Y41663D01*
X19059Y42267D01*
Y45000D01*
Y454500D01*
Y468671D01*
X19057Y468682D01*
X19342Y470116D01*
X19491Y470340D01*
X20173Y471328D01*
X20173Y471328D01*
X22041Y473604D01*
X23429Y476201D01*
X24284Y479019D01*
X24572Y481950D01*
X24559D01*
Y566050D01*
X24572D01*
X24284Y568981D01*
X23429Y571799D01*
X22041Y574396D01*
X20173Y576672D01*
X20173Y576673D01*
X19265Y577561D01*
X19138Y577688D01*
X19061Y577739D01*
X17936Y579423D01*
X17541Y581409D01*
X17559Y581500D01*
X17559Y969500D01*
Y971464D01*
X17540Y971559D01*
X17773Y972729D01*
X18171Y972994D01*
X19441Y972314D01*
D02*
G37*
D10*
X-12927Y998850D02*
G03*
X-12473Y982478I12637J-7842D01*
G01*
X-9400Y997625D02*
G03*
X-9420Y984404I9400J-6625D01*
G01*
X-20013Y1000137D02*
G03*
X-18021Y978381I20013J-9137D01*
G01*
X-16296Y999758D02*
G03*
X-15154Y980389I16296J-8758D01*
G01*
X-12927Y998850D02*
X-10885Y1003483D01*
X-12473Y982478D02*
X-12473Y982478D01*
X-9500Y978500D01*
X-9420Y984404D02*
X-9420Y984404D01*
X-6500Y981000D01*
X-9400Y997625D02*
X-6799Y1002466D01*
X-18021Y978381D02*
X-18021Y978381D01*
X-15500Y973500D01*
X-20013Y1000137D02*
X-18833Y1003142D01*
X-20013Y1000137D02*
Y1000137D01*
X-16296Y999758D02*
X-15508Y1001682D01*
X-15154Y980389D02*
X-12500Y976000D01*
D11*
X175500Y989062D02*
G03*
X168060Y1007023I-25400J0D01*
G01*
X164015Y1011068D02*
G03*
X140000Y1021000I-24015J-24068D01*
G01*
X25504Y1021115D02*
G03*
X13261Y1002131I-504J-13115D01*
G01*
X14244Y981667D02*
G03*
X14748Y999515I-14244J9333D01*
G01*
X17000Y565257D02*
G03*
X14000Y572500I-10243J0D01*
G01*
X16500Y480000D02*
G03*
X17000Y482509I-6043J2509D01*
G01*
X12000Y978500D02*
G03*
X10000Y973671I4828J-4828D01*
G01*
X10000Y580000D02*
G03*
X12475Y574025I8450J0D01*
G01*
X14732Y477360D02*
G03*
X11500Y469523I7826J-7812D01*
G01*
X14732Y477360D02*
G03*
X16500Y480000I-5737J5756D01*
G01*
X11500Y39500D02*
Y469523D01*
X7500Y35500D02*
X11500Y39500D01*
X7500Y17000D02*
Y35500D01*
X12500Y17000D02*
Y38500D01*
X11500Y39500D02*
X12500Y38500D01*
X164015Y1011068D02*
X168060Y1007023D01*
X175500Y937000D02*
Y989062D01*
X31000Y1021000D02*
X140000D01*
X25504Y1021115D02*
X31000Y1021000D01*
X13261Y1002131D02*
X13261Y1002131D01*
X14748Y999515D01*
X14244Y981667D02*
X14244Y981667D01*
X12000Y978500D02*
X14244Y981667D01*
X17000Y482520D02*
Y565257D01*
X17000Y482509D02*
X17000Y482520D01*
X12475Y574025D02*
X14000Y572500D01*
X10000Y969500D02*
X10000Y580000D01*
X10000Y969500D02*
Y973671D01*
D20*
X7500Y980500D02*
G03*
X5500Y975671I4828J-4828D01*
G01*
X5500Y581364D02*
G03*
X10000Y570500I15364J0D01*
G01*
X9500Y479500D02*
G03*
X7000Y473464I6036J-6036D01*
G01*
X25460Y1025490D02*
G03*
X8993Y1000938I-460J-17490D01*
G01*
X12500Y564464D02*
G03*
X10000Y570500I-8536J0D01*
G01*
X9382Y982605D02*
G03*
X10903Y997295I-9382J8395D01*
G01*
X180000Y990886D02*
G03*
X172561Y1008846I-25400J0D01*
G01*
X166153Y1015253D02*
G03*
X140000Y1025500I-26153J-28253D01*
G01*
X171000Y987159D02*
G03*
X163561Y1005120I-25400J0D01*
G01*
X161740Y1006940D02*
G03*
X140000Y1016500I-21740J-19940D01*
G01*
X-40250Y1015039D02*
G03*
X-61521Y1004975I250J-28039D01*
G01*
X-40250Y1019000D02*
G03*
X-63837Y1008350I250J-32000D01*
G01*
X-40250Y1023000D02*
G03*
X-66665Y1011188I250J-36000D01*
G01*
X-40251Y1027000D02*
G03*
X-71411Y1011767I251J-39999D01*
G01*
X-12500Y571000D02*
G03*
X-16500Y561222I9949J-9778D01*
G01*
Y490278D02*
G03*
X-11000Y477000I18778J0D01*
G01*
X-12421Y571079D02*
G03*
X-12500Y571000I9870J-9858D01*
G01*
X-18585Y1020273D02*
G03*
X-25169Y1023000I-6584J-6584D01*
G01*
X-10885Y1003483D02*
G03*
X-18585Y1020273I-16667J2517D01*
G01*
X-8000Y469757D02*
G03*
X-11000Y477000I-10243J0D01*
G01*
X-12414Y571086D02*
G03*
X-12421Y571079I9864J-9864D01*
G01*
X-9328Y574172D02*
G03*
X-6500Y581000I-6828J6828D01*
G01*
X-6500Y972465D02*
G03*
X-8647Y977646I-7328J0D01*
G01*
X-9414Y568586D02*
G03*
X-12500Y561136I7450J-7450D01*
G01*
Y491571D02*
G03*
X-7500Y479500I17071J0D01*
G01*
X-6799Y1002466D02*
G03*
X-22515Y1026441I-20754J3534D01*
G01*
X-4000Y471050D02*
G03*
X-7500Y479500I-11950J0D01*
G01*
X-7096Y570904D02*
G03*
X-2500Y582000I-11096J11096D01*
G01*
X-4791Y979291D02*
G03*
X-4793Y979293I-5538J-5533D01*
G01*
X-2500Y973757D02*
G03*
X-4791Y979291I-7828J0D01*
G01*
X18818Y980601D02*
G03*
X19486Y1000086I-18818J10399D01*
G01*
X18000Y473500D02*
G03*
X21500Y481950I-8450J8450D01*
G01*
Y566050D02*
G03*
X18000Y574500I-11950J0D01*
G01*
X24058Y1016007D02*
G03*
X17397Y1005317I942J-8007D01*
G01*
X17000Y977500D02*
G03*
X14500Y971464I6036J-6036D01*
G01*
X14500Y581500D02*
G03*
X16975Y575525I8450J0D01*
G01*
X18000Y473500D02*
G03*
X16000Y468671I4828J-4828D01*
G01*
X-20327Y1016560D02*
G03*
X-26219Y1019000I-5891J-5891D01*
G01*
X-14500Y971086D02*
G03*
X-15500Y973500I-3414J0D01*
G01*
X-16000Y465965D02*
G03*
X-18500Y472000I-8535J0D01*
G01*
X-21000Y573500D02*
G03*
X-24500Y565050I8450J-8450D01*
G01*
Y486485D02*
G03*
X-18500Y472000I20485J0D01*
G01*
X-15508Y1001682D02*
G03*
X-20327Y1016560I-12044J4318D01*
G01*
X-18833Y1003142D02*
G03*
X-25178Y1014863I-8719J2858D01*
G01*
X-10500Y971397D02*
G03*
X-12340Y975840I-6284J0D01*
G01*
X-20500Y488985D02*
G03*
X-14500Y474500I20485J0D01*
G01*
X-16147Y572854D02*
G03*
X-20500Y562343I10510J-10510D01*
G01*
X-12000Y468465D02*
G03*
X-14500Y474500I-8536J0D01*
G01*
X-13682Y575318D02*
G03*
X-10500Y583000I-7682J7682D01*
G01*
X-17328Y577172D02*
G03*
X-14500Y584000I-6829J6829D01*
G01*
X9500Y479500D02*
G03*
X12500Y486743I-7243J7243D01*
G01*
X16000Y41000D02*
Y45000D01*
Y41000D02*
X17500Y39500D01*
Y17000D02*
Y39500D01*
X7000Y45000D02*
Y454500D01*
Y41000D02*
Y45000D01*
X2500Y17000D02*
Y36500D01*
X7000Y41000D01*
Y454500D02*
Y473464D01*
X5500Y969500D02*
Y975671D01*
Y969500D02*
X5500Y581364D01*
X7500Y980500D02*
X7500Y980500D01*
X9382Y982605D01*
X12500Y486743D02*
Y564464D01*
X10903Y997295D02*
X10903Y997295D01*
X180000Y937000D02*
Y990886D01*
X8993Y1000938D02*
X8993Y1000938D01*
X10903Y997295D01*
X25460Y1025490D02*
X25460D01*
X31000Y1025500D01*
X166153Y1015253D02*
X172561Y1008846D01*
X137000Y1025500D02*
X140000Y1025500D01*
X16000Y45000D02*
Y454500D01*
X161740Y1006940D02*
X163561Y1005120D01*
X171000Y937000D02*
Y987159D01*
X-40250Y1023000D02*
X-26000Y1023000D01*
X-16500Y490278D02*
Y561222D01*
X-12500Y571000D02*
X-12421Y571079D01*
X-26000Y1023000D02*
X-25169D01*
X-12421Y571079D02*
X-9328Y574172D01*
X-8000Y454500D02*
Y469757D01*
X-6500Y969500D02*
Y972465D01*
X-40251Y1027000D02*
X-40250D01*
X-12500Y491571D02*
Y561136D01*
X-9414Y568586D02*
X-7096Y570904D01*
X-22515Y1026441D02*
X-22515D01*
X-26000Y1027000D02*
X-22515Y1026441D01*
X-4000Y454500D02*
Y471050D01*
X-6500Y981000D02*
X-4793Y979293D01*
X-2500Y969500D02*
Y973757D01*
X-4793Y979293D02*
X-4791Y979291D01*
X-40250Y1027000D02*
X-26000Y1027000D01*
X137000Y1016500D02*
X140000Y1016500D01*
X24058Y1016007D02*
X31000Y1016500D01*
X24058Y1016007D02*
X24058D01*
X17397Y1005317D02*
X19486Y1000086D01*
X19486Y1000086D01*
X18818Y980601D02*
X18818Y980601D01*
X17000Y977500D02*
X18818Y980601D01*
X17000Y977500D02*
Y977500D01*
X21500Y481950D02*
Y566050D01*
X16975Y575525D02*
X18000Y574500D01*
X14500Y969500D02*
X14500Y581500D01*
X14500Y969500D02*
Y971464D01*
X16000Y454500D02*
Y468671D01*
X31000Y1025500D02*
X137000D01*
X31000Y1016500D02*
X137000D01*
X-26500Y1019000D02*
X-26219D01*
X-27500Y1015000D02*
X-25178Y1014863D01*
X-14500Y967000D02*
Y971086D01*
X-16000Y454500D02*
Y465965D01*
X-21000Y573500D02*
X-17328Y577172D01*
X-24500Y486485D02*
Y565050D01*
X-40250Y1015000D02*
X-27500D01*
X-40250Y1019000D02*
X-26500Y1019000D01*
X-12500Y976000D02*
X-12340Y975840D01*
X-9500Y978500D02*
X-8647Y977646D01*
X-20500Y488985D02*
Y562343D01*
X-12000Y454500D02*
Y468465D01*
X-16147Y572854D02*
X-13682Y575318D01*
X-10500Y971397D02*
X-10500Y583000D01*
X-14500Y967000D02*
X-14500Y584000D01*
X-6500Y969500D02*
X-6500Y581000D01*
X-2500Y969500D02*
X-2500Y582000D01*
X-16000Y454500D02*
X-16000Y38500D01*
X-17500Y37000D02*
X-16000Y38500D01*
X-17500Y17000D02*
Y37000D01*
X-12000Y454500D02*
X-12000Y37000D01*
X-12500Y36500D02*
X-12000Y37000D01*
X-12500Y17000D02*
Y36500D01*
X-8000Y454500D02*
X-8000Y17500D01*
X-7500Y17000D01*
X-4000Y454500D02*
X-4000Y38500D01*
X-2500Y37000D01*
Y17000D02*
Y37000D01*
D21*
X-63021Y1003475D02*
G03*
X-70460Y985515I17960J-17960D01*
G01*
X-66381Y1005807D02*
G03*
X-73820Y987847I17960J-17960D01*
G01*
X-69741Y1008112D02*
G03*
X-77180Y990152I17960J-17960D01*
G01*
X-73101Y1010077D02*
G03*
X-80540Y992117I17960J-17960D01*
G01*
X-63021Y1003475D02*
X-61521Y1004975D01*
X-70460Y937000D02*
Y985515D01*
X-66381Y1005807D02*
X-63837Y1008350D01*
X-73820Y937000D02*
Y987847D01*
X-69741Y1008112D02*
X-66665Y1011188D01*
X-77180Y937000D02*
Y990152D01*
X-73101Y1010077D02*
X-71411Y1011767D01*
X-80540Y937000D02*
Y992117D01*
D22*
X171000Y937000D02*
D03*
X180000D02*
D03*
D23*
X175500D02*
D03*
D24*
X17500Y17000D02*
D03*
X2500Y17000D02*
D03*
X7500D02*
D03*
X12500D02*
D03*
X-17500D02*
D03*
X-12500D02*
D03*
X-7500D02*
D03*
X-2500D02*
D03*
D25*
X-70460Y937000D02*
D03*
X-73820D02*
D03*
X-77180D02*
D03*
X-80540D02*
D03*
M02*
